<?xml version="1.0" standalone="no"?>
<!DOCTYPE svg PUBLIC "-//W3C//DTD SVG 1.1//EN" "http://www.w3.org/Graphics/SVG/1.1/DTD/svg11.dtd" >
<svg xmlns="http://www.w3.org/2000/svg">
<metadata></metadata>
<defs>
<font id="palanquinthin" horiz-adv-x="1017" >
<font-face units-per-em="2048" ascent="1577" descent="-471" />
<missing-glyph horiz-adv-x="471" />
<glyph horiz-adv-x="0" />
<glyph horiz-adv-x="0" />
<glyph horiz-adv-x="682" />
<glyph unicode="&#xd;" horiz-adv-x="0" />
<glyph unicode=" "  horiz-adv-x="471" />
<glyph unicode="&#x09;" horiz-adv-x="471" />
<glyph unicode="&#xa0;" horiz-adv-x="471" />
<glyph unicode="!" horiz-adv-x="282" d="M61 78q0 33 21.5 55.5t56.5 22.5q33 0 56.5 -22.5t23.5 -55.5t-23.5 -55.5t-56.5 -22.5q-35 0 -56.5 22.5t-21.5 55.5zM111 379v1059h110l-18 -1102z" />
<glyph unicode="&#x22;" horiz-adv-x="563" d="M41 1112q53 29 88 71t37 97q-37 0 -55.5 28.5t-18.5 49.5q0 31 19.5 55.5t58.5 24.5q37 0 58.5 -29t21.5 -59q0 -94 -45 -171t-131 -118zM293 1112q53 29 88 71t37 97q-37 0 -55.5 28.5t-18.5 49.5q0 31 19.5 55.5t58.5 24.5q37 0 58.5 -29t21.5 -59q0 -94 -45 -171 t-131 -118z" />
<glyph unicode="#" d="M61 367h187l78 313h-248l-17 80h285l68 268h96l-68 -268h269l67 268h96l-67 -268h135l14 -80h-170l-77 -313h233l14 -80h-268l-72 -287l-94 8l70 279h-268l-72 -287l-94 8l69 279h-149zM344 367h268l78 313h-268z" />
<glyph unicode="$" horiz-adv-x="1093" d="M135 1096q0 109 68.5 191.5t191.5 117.5v233l82 -6v-211q18 2 39 3t41 1q14 0 28.5 -1t28.5 -1v215h84v-227q59 -10 111.5 -27.5t91.5 -37.5l-45 -74q-53 25 -120.5 47t-174.5 22q-147 0 -233 -74.5t-86 -181.5q0 -233 370.5 -359t370.5 -404q0 -119 -72.5 -207 t-212.5 -121v-221l-84 8v199q-23 -2 -47 -4.5t-49 -2.5h-19.5t-21.5 2v-202h-82v211q-78 12 -151.5 33.5t-98.5 41.5l31 80q53 -27 145.5 -53.5t194.5 -26.5q176 0 269.5 81t93.5 188q0 225 -372 348t-372 420z" />
<glyph unicode="%" horiz-adv-x="1574" d="M41 1090q0 160 90 254t221 94q139 0 225.5 -91.5t86.5 -256.5q0 -160 -92.5 -253.5t-217.5 -93.5q-135 0 -224 90.5t-89 256.5zM137 1090q0 -127 65.5 -199t151.5 -72q82 0 147.5 68.5t65.5 202.5q0 129 -60.5 200.5t-154.5 71.5q-80 0 -147.5 -69.5t-67.5 -202.5zM406 0 l630 1454l97 -8l-633 -1454zM911 344q0 160 90.5 254t221.5 94q139 0 225 -91t86 -257q0 -160 -92 -253t-217 -93q-135 0 -224.5 90t-89.5 256zM1008 344q0 -127 65.5 -198.5t151.5 -71.5q82 0 147.5 68.5t65.5 201.5q0 129 -60.5 199.5t-154.5 70.5q-80 0 -147.5 -68.5 t-67.5 -201.5z" />
<glyph unicode="&#x26;" horiz-adv-x="1378" d="M156 410q0 135 61.5 243.5t159.5 173.5q-35 53 -55.5 112.5t-20.5 129.5q0 145 98.5 250.5t247.5 105.5q102 0 182 -25.5t127 -53.5l-41 -72q-51 25 -103 46t-146 21q-115 0 -192 -79.5t-77 -184.5q0 -111 58.5 -201t165.5 -190l405 -379q51 88 79 190.5t28 196.5l73 -22 q0 -111 -28.5 -221.5t-85.5 -204.5l204 -191l-51 -55l-198 180q-70 -94 -174.5 -150.5t-233.5 -56.5q-203 0 -343 116t-140 321zM252 414q0 -164 123 -260.5t270 -96.5q104 0 190.5 51.5t145.5 131.5l-432 395q-33 29 -64.5 60.5t-58.5 64.5q-88 -63 -131 -152.5t-43 -193.5 z" />
<glyph unicode="'" horiz-adv-x="311" d="M41 1112q53 29 88 71t37 97q-37 0 -55.5 28.5t-18.5 49.5q0 31 19.5 55.5t58.5 24.5q37 0 58.5 -29t21.5 -59q0 -94 -45 -171t-131 -118z" />
<glyph unicode="(" horiz-adv-x="489" d="M102 655q0 162 57.5 363t186.5 364l82 -36q-90 -96 -155.5 -318.5t-65.5 -370.5q0 -150 65.5 -376t155.5 -320l-82 -37q-129 166 -186.5 367t-57.5 364z" />
<glyph unicode=")" horiz-adv-x="489" d="M61 -39q88 94 155 319.5t67 372.5t-66.5 371.5t-155.5 321.5l82 36q125 -164 184.5 -364.5t59.5 -362.5q0 -164 -59.5 -364.5t-184.5 -366.5z" />
<glyph unicode="*" horiz-adv-x="641" d="M20 1337l25 66l236 -64v246h71v-246l242 64l27 -66l-238 -59l162 -244l-64 -33l-162 232l-151 -232l-74 33l162 244z" />
<glyph unicode="+" horiz-adv-x="1079" d="M61 598h426v496l101 -7v-489h409l21 -76h-430v-514l-101 8v506h-409z" />
<glyph unicode="," horiz-adv-x="311" d="M41 -170q53 29 88 71t37 97q-37 0 -55.5 28.5t-18.5 49.5q0 31 19.5 55.5t58.5 24.5q37 0 58.5 -29t21.5 -59q0 -94 -45 -171t-131 -118z" />
<glyph unicode="-" horiz-adv-x="636" d="M61 598h498l16 -80h-497z" />
<glyph unicode="." horiz-adv-x="280" d="M61 78q0 33 21.5 55.5t56.5 22.5q33 0 56.5 -22.5t23.5 -55.5t-23.5 -55.5t-56.5 -22.5q-35 0 -56.5 22.5t-21.5 55.5z" />
<glyph unicode="/" horiz-adv-x="768" d="M20 0l631 1454l97 -8l-633 -1454z" />
<glyph unicode="0" horiz-adv-x="1142" d="M111 590q0 276 128 436t334 160q209 0 334 -154.5t125 -439.5q0 -279 -125 -449t-334 -170t-335.5 166t-126.5 451zM215 596q0 -240 100.5 -389.5t257.5 -149.5q152 0 253.5 149.5t101.5 379.5q0 238 -98.5 377t-256.5 139q-156 0 -257 -139.5t-101 -366.5z" />
<glyph unicode="1" horiz-adv-x="751" d="M111 80h233v960l-190 -129l-37 74l256 174h71v-1079h195l14 -80h-524z" />
<glyph unicode="2" horiz-adv-x="980" d="M61 0v102l420 385q133 121 186.5 194t53.5 173q0 102 -67.5 176t-198.5 74q-102 0 -190.5 -46t-90.5 -48l-45 69q2 0 96.5 53.5t233.5 53.5q197 0 282.5 -107.5t85.5 -222.5t-79.5 -219.5t-225.5 -235.5l-358 -321h710l17 -80h-830z" />
<glyph unicode="3" horiz-adv-x="974" d="M41 -49l68 69q72 -43 143.5 -67.5t183.5 -24.5q123 0 223.5 80t100.5 205q0 131 -95.5 212t-308.5 81h-37l-20 80h70q172 0 269 74.5t97 191.5q0 90 -75.5 170t-204.5 80q-111 0 -195 -34t-133 -67l-64 64q80 51 177.5 86t220.5 35q190 0 284.5 -101.5t94.5 -230.5 q0 -111 -69 -192.5t-165 -112.5q115 -27 186.5 -117t71.5 -215q0 -158 -117.5 -265.5t-316.5 -107.5q-115 0 -217 34t-172 73z" />
<glyph unicode="4" horiz-adv-x="1069" d="M20 256l691 913h57v-938h240l-17 -79h-223v-293h-100v293h-629zM123 231h545v732z" />
<glyph unicode="5" horiz-adv-x="1038" d="M98 -53l49 73q72 -43 153 -67.5t175 -24.5q172 0 265.5 95.5t93.5 242.5t-85 236.5t-227 89.5q-82 0 -154.5 -38t-113.5 -83h-74l31 688h649l-6 -80h-551l-22 -487q55 41 118.5 62.5t114.5 21.5q225 0 325.5 -122t100.5 -288q0 -170 -121 -296t-352 -126q-113 0 -205 32 t-164 71z" />
<glyph unicode="6" horiz-adv-x="1036" d="M111 532q0 225 156.5 460.5t406.5 305.5l49 -67q-184 -55 -325.5 -221t-182.5 -392q45 82 141.5 128.5t190.5 46.5q197 0 302 -124t105 -280q0 -160 -112.5 -288t-292.5 -128q-195 0 -316.5 143.5t-121.5 415.5zM217 508q2 -193 83 -322t245 -129q145 0 225 102.5 t80 219.5q0 137 -80 233.5t-223 96.5q-113 0 -199 -64.5t-131 -136.5z" />
<glyph unicode="7" horiz-adv-x="940" d="M61 1159h773l45 -59l-676 -1241l-94 41l663 1179h-694z" />
<glyph unicode="8" horiz-adv-x="1083" d="M111 346q0 111 81.5 216.5t198.5 131.5q-94 37 -158.5 113t-64.5 178q0 129 89 230.5t286 101.5q199 0 285.5 -105.5t86.5 -226.5q0 -104 -69.5 -179t-151.5 -112q109 -27 194 -123t85 -225q0 -147 -106.5 -260t-323.5 -113q-219 0 -325.5 110t-106.5 263zM215 332 q0 -117 94 -196t234 -79q133 0 229 78t96 197q0 117 -81.5 206t-243.5 109q-164 -20 -246 -109t-82 -206zM270 991q0 -86 71 -160.5t202 -93.5q129 18 200.5 95t71.5 159q0 94 -67.5 168t-210.5 74q-137 0 -202 -76t-65 -166z" />
<glyph unicode="9" horiz-adv-x="1036" d="M82 768q0 160 112.5 288t292.5 128q193 0 316 -143.5t123 -415.5q0 -225 -157 -460.5t-407 -305.5l-49 67q184 55 325.5 221t182.5 392q-45 -82 -141 -128t-191 -46q-197 0 -302 123.5t-105 279.5zM186 778q0 -137 80 -233t223 -96q113 0 199 64.5t131 135.5 q-2 193 -83 322t-244 129q-145 0 -225.5 -102.5t-80.5 -219.5z" />
<glyph unicode=":" horiz-adv-x="280" d="M61 172q0 33 21.5 55.5t56.5 22.5q33 0 56.5 -22.5t23.5 -55.5t-23.5 -55.5t-56.5 -22.5q-35 0 -56.5 22.5t-21.5 55.5zM61 825q0 33 21.5 55.5t56.5 22.5q33 0 56.5 -22.5t23.5 -55.5t-23.5 -55t-56.5 -22q-35 0 -56.5 22.5t-21.5 54.5z" />
<glyph unicode=";" horiz-adv-x="311" d="M41 -76q53 29 88 71t37 97q-37 0 -55.5 29t-18.5 49q0 31 19.5 55.5t58.5 24.5q37 0 58.5 -28.5t21.5 -59.5q0 -94 -45 -171t-131 -118zM92 825q0 33 21.5 55.5t56.5 22.5q33 0 56.5 -22.5t23.5 -55.5t-23.5 -55t-56.5 -22q-35 0 -56.5 22.5t-21.5 54.5z" />
<glyph unicode="&#x3c;" horiz-adv-x="659" d="M61 473v57l510 433l47 -70l-462 -391l462 -391l-47 -72z" />
<glyph unicode="=" d="M61 367h881l14 -80h-878zM61 760h881l14 -80h-878z" />
<glyph unicode="&#x3e;" horiz-adv-x="659" d="M41 109l463 391l-463 391l47 72l510 -435v-57l-510 -432z" />
<glyph unicode="?" horiz-adv-x="802" d="M20 1313q53 47 146.5 86t214.5 39q182 0 271 -94.5t89 -241.5q0 -117 -92 -231.5t-262 -190.5l-20 -399l-68 43l-14 419q160 51 254 145.5t94 211.5q0 123 -69.5 188.5t-186.5 65.5q-111 0 -185.5 -34t-154.5 -91zM238 78q0 33 21.5 55.5t55.5 22.5q33 0 56.5 -22.5 t23.5 -55.5t-23.5 -55.5t-56.5 -22.5q-35 0 -56 22.5t-21 55.5z" />
<glyph unicode="@" horiz-adv-x="1589" d="M98 436q0 317 200 549t572 232q276 0 448.5 -169t172.5 -425q0 -244 -89 -371t-243 -127q-55 0 -96 21.5t-68 56.5q-39 -29 -92 -48.5t-100 -19.5q-143 0 -232.5 83t-89.5 214q0 172 129 283.5t308 111.5h145l33 -41l-49 -411q-2 -8 -2.5 -15.5t-0.5 -13.5 q0 -70 33 -103.5t86 -33.5q94 0 162 98.5t68 300.5q0 233 -140.5 379t-388.5 146q-287 0 -474 -190.5t-187 -504.5q0 -256 159.5 -403.5t389.5 -147.5q88 0 179 18.5t154 53.5l27 -78q-86 -45 -184.5 -61.5t-198.5 -16.5q-252 0 -441.5 169t-189.5 464zM586 432 q0 -104 59.5 -162.5t157.5 -58.5q45 0 89 13.5t71 31.5q-8 20 -11.5 43t-3.5 43q0 10 1 22.5t3 24.5l47 363h-92q-129 0 -225 -86.5t-96 -233.5z" />
<glyph unicode="A" horiz-adv-x="1212" d="M41 0l506 1393h94l530 -1370l-102 -23l-166 436h-604l-158 -436h-100zM328 516h546l-278 741z" />
<glyph unicode="B" horiz-adv-x="1198" d="M205 0v1393h270q219 0 360.5 -77t141.5 -286q0 -104 -51.5 -176t-134.5 -113q127 -39 205.5 -125t78.5 -231q0 -219 -154.5 -302t-369.5 -83h-346zM307 80h268q164 0 279 69.5t115 231.5q0 156 -101.5 228.5t-269.5 72.5h-291v-602zM307 762h187q160 2 268 60.5 t108 205.5q0 160 -101 222.5t-269 62.5h-193v-551z" />
<glyph unicode="C" horiz-adv-x="1165" d="M135 688q0 305 146.5 519t447.5 214q63 0 170 -18.5t164 -56.5l-41 -74q-63 27 -124.5 44t-172.5 17q-219 -2 -348 -175t-129 -468q0 -250 110.5 -440.5t348.5 -190.5q111 0 181 18.5t126 43.5l49 -74q-57 -31 -157.5 -53.5t-188.5 -22.5q-319 0 -450.5 216t-131.5 501z " />
<glyph unicode="D" horiz-adv-x="1347" d="M205 0v1393h418q322 0 455.5 -202t133.5 -486q0 -291 -145 -498t-451 -207h-411zM305 80h313q219 0 354.5 177t135.5 445q0 248 -115.5 429.5t-353.5 181.5h-334v-1233z" />
<glyph unicode="E" horiz-adv-x="1054" d="M205 0v1393h710l11 -80h-621v-559h410l10 -80h-420v-594h656l12 -80h-768z" />
<glyph unicode="F" horiz-adv-x="968" d="M205 0v1393h688l14 -80h-602v-568h387l13 -79h-400v-666h-100z" />
<glyph unicode="G" horiz-adv-x="1290" d="M135 688q0 319 176 526t475 207q63 0 173 -18.5t167 -56.5l-39 -68q-63 27 -125.5 43t-170.5 16q-258 0 -400.5 -187t-142.5 -484q0 -281 143.5 -444t380.5 -163q74 0 136.5 14.5t113.5 32.5v515h-313l12 79h401v-637q-57 -39 -158.5 -65.5t-189.5 -26.5q-317 0 -478 206 t-161 511z" />
<glyph unicode="H" horiz-adv-x="1300" d="M205 0v1393l100 10v-658h690v648h101v-1393h-101v666h-690v-666h-100z" />
<glyph unicode="I" horiz-adv-x="509" d="M205 0v1393h100v-1393h-100z" />
<glyph unicode="J" horiz-adv-x="505" d="M41 20q102 39 141 80t39 164v1129h101v-1143q0 -123 -42 -186.5t-190 -108.5z" />
<glyph unicode="K" horiz-adv-x="1187" d="M205 0v1393h100v-727l688 757l70 -65l-512 -545l616 -813h-127l-557 741l-178 -190v-551h-100z" />
<glyph unicode="L" horiz-adv-x="1005" d="M205 0v1393h100v-1313h649l11 -80h-760z" />
<glyph unicode="M" horiz-adv-x="1480" d="M205 0v1393h45l489 -742l482 742h55v-1393h-100v1159l-412 -649l-41 -8l-418 647v-1149h-100z" />
<glyph unicode="N" horiz-adv-x="1347" d="M205 0v1393h57l711 -1045l69 -121v1166h101v-1393h-56l-753 1116l-29 60v-1176h-100z" />
<glyph unicode="O" horiz-adv-x="1431" d="M135 690q0 305 151.5 520t436.5 215q303 0 438 -217t135 -501q0 -289 -148.5 -512.5t-436.5 -223.5q-305 0 -440.5 218.5t-135.5 500.5zM248 692q0 -250 110.5 -443.5t348.5 -193.5q219 0 348 189.5t129 460.5q0 250 -109.5 442t-349.5 192q-219 0 -348 -189.5 t-129 -457.5z" />
<glyph unicode="P" horiz-adv-x="1150" d="M205 0v1393h334q217 0 359 -96.5t142 -323.5q0 -225 -153.5 -328.5t-370.5 -103.5h-211v-541h-100zM305 621h236q164 0 280.5 88t116.5 262q0 180 -103.5 260t-271.5 80h-258v-690z" />
<glyph unicode="Q" horiz-adv-x="1431" d="M135 690q0 305 151.5 520t436.5 215q303 0 438 -217t135 -501q0 -154 -42 -294.5t-124 -242.5l152 -147l-65 -52l-146 135q-70 -63 -160 -99t-200 -36q-305 0 -440.5 218.5t-135.5 500.5zM248 692q0 -250 110.5 -443.5t348.5 -193.5q88 0 160.5 32t129.5 89l-217 205 l70 68l207 -205q61 88 94 206.5t33 254.5q0 250 -109.5 442t-349.5 192q-219 0 -348 -189.5t-129 -457.5z" />
<glyph unicode="R" horiz-adv-x="1212" d="M205 0v1393h334q217 0 359 -89.5t142 -308.5q0 -141 -70.5 -230t-181.5 -132l363 -633h-113l-336 606q-45 -10 -92 -15t-94 -5h-211v-586h-100zM305 666h215q156 0 287 75.5t131 249.5q0 178 -117.5 249t-277.5 71h-238v-645z" />
<glyph unicode="S" horiz-adv-x="1093" d="M135 1096q0 141 112.5 235t309.5 94q102 0 192.5 -24.5t151.5 -54.5l-45 -74q-53 25 -120.5 47t-174.5 22q-147 0 -233 -74.5t-86 -181.5q0 -233 370.5 -359t370.5 -404q0 -154 -119 -251.5t-346 -97.5q-88 0 -213 28t-160 58l31 80q53 -27 145.5 -53.5t194.5 -26.5 q176 0 269.5 81t93.5 188q0 225 -372 348t-372 420z" />
<glyph unicode="T" horiz-adv-x="1052" d="M41 1313v80h960l11 -80h-437v-1313h-100v1313h-434z" />
<glyph unicode="U" horiz-adv-x="1331" d="M184 489v904h101v-910q0 -178 102 -301t279 -123q182 0 281.5 123t99.5 301v910h100v-904q0 -223 -122 -368.5t-359 -145.5q-236 0 -359 145.5t-123 368.5z" />
<glyph unicode="V" horiz-adv-x="1212" d="M41 1370l102 23l473 -1258l455 1258h100l-505 -1393h-95z" />
<glyph unicode="W" horiz-adv-x="1945" d="M41 1370l102 23l392 -1248l389 1248h100l391 -1248l389 1248h101l-441 -1393h-94l-401 1221l-385 -1221h-95z" />
<glyph unicode="X" horiz-adv-x="1193" d="M41 0l498 711l-455 659l113 23l419 -617l426 617h111l-481 -703l481 -690h-121l-436 637l-449 -657z" />
<glyph unicode="Y" horiz-adv-x="1097" d="M20 1370l113 23l410 -736l418 736h116l-483 -832v-561h-100v551z" />
<glyph unicode="Z" horiz-adv-x="1062" d="M61 102l846 1211h-770l-20 80h874l10 -101l-839 -1212h799l10 -80h-897z" />
<glyph unicode="[" horiz-adv-x="542" d="M205 -180v1605h317l-16 -79h-201v-1446h201l16 -80h-317z" />
<glyph unicode="\" horiz-adv-x="768" d="M20 1446l97 8l631 -1454l-97 -8z" />
<glyph unicode="]" horiz-adv-x="542" d="M20 -180l17 80h201v1446h-201l-17 79h318v-1605h-318z" />
<glyph unicode="^" horiz-adv-x="874" d="M41 293l352 506h88l353 -506h-99l-297 420l-299 -420h-98z" />
<glyph unicode="_" horiz-adv-x="878" d="M61 80h740l16 -80h-739z" />
<glyph unicode="`" horiz-adv-x="290" d="M20 1520h125l125 -314h-75z" />
<glyph unicode="a" horiz-adv-x="985" d="M106 279q0 141 99.5 218.5t255.5 77.5h276v123q0 102 -58 170t-179 68q-100 0 -162 -20.5t-123 -49.5l-39 68q57 39 156.5 62.5t161.5 23.5q170 0 257 -89t87 -235v-696h-58l-37 106q-51 -57 -129.5 -95t-173.5 -38q-168 0 -251 88.5t-83 217.5zM211 279q0 -92 63.5 -157 t174.5 -65q96 0 168.5 48.5t119.5 117.5v277h-268q-135 0 -196.5 -64.5t-61.5 -156.5z" />
<glyph unicode="b" horiz-adv-x="1064" d="M164 0v1425l100 21v-537q61 47 134 79t143 32q219 0 322.5 -148.5t103.5 -375.5t-103.5 -375t-322.5 -148q-72 0 -149 32t-140 83l-31 -88h-57zM264 176q63 -59 141 -89t140 -30q168 0 242.5 128t74.5 309q0 182 -74.5 312t-242.5 130q-61 0 -139 -31t-142 -90v-639z" />
<glyph unicode="c" horiz-adv-x="919" d="M98 502q0 223 112 370.5t331 147.5q59 0 140 -23.5t140 -62.5l-41 -68q-51 25 -100 47.5t-143 22.5q-164 0 -249 -129t-85 -303q0 -182 77.5 -314.5t245.5 -132.5q102 0 146.5 21.5t97.5 48.5l41 -70q-61 -39 -141 -61.5t-144 -22.5q-219 0 -323.5 148.5t-104.5 380.5z " />
<glyph unicode="d" horiz-adv-x="1064" d="M98 494q0 229 104.5 377.5t321.5 148.5q68 0 142.5 -32t134.5 -79v516l100 19v-1444h-55l-33 88q-63 -51 -140 -83t-149 -32q-217 0 -321.5 146.5t-104.5 374.5zM203 500q0 -182 74.5 -312.5t242.5 -130.5q61 0 139 31t142 90v639q-63 59 -141 89t-140 30 q-168 0 -242.5 -128t-74.5 -308z" />
<glyph unicode="e" horiz-adv-x="1015" d="M98 502q0 223 107.5 370.5t326.5 147.5q172 0 279 -148.5t107 -375.5h-715q2 -178 84 -308.5t266 -130.5q109 0 175.5 21.5t117.5 48.5l41 -76q-61 -39 -159.5 -58.5t-158.5 -19.5q-244 0 -357.5 148.5t-113.5 380.5zM207 571h604q-14 145 -79.5 255t-213.5 110 q-147 0 -222 -109.5t-89 -255.5z" />
<glyph unicode="f" horiz-adv-x="557" d="M57 887v76h150v190q0 129 52 207t163 78q41 0 78 -9.5t57 -17.5l-25 -76q-12 6 -37.5 12.5t-45.5 6.5q-78 0 -110 -47t-32 -121v-223h180l43 -76h-223v-887h-100v887h-150z" />
<glyph unicode="g" horiz-adv-x="1064" d="M98 494q0 229 104.5 377.5t321.5 148.5q72 0 149 -34t138 -85l35 92h55v-1102q0 -147 -89 -245.5t-284 -98.5q-59 0 -159.5 22.5t-157.5 61.5l39 72q70 -31 125 -51.5t149 -20.5q125 0 201 58.5t76 181.5v211q-59 -49 -134 -79t-143 -30q-217 0 -321.5 146.5 t-104.5 374.5zM203 500q0 -182 74.5 -312.5t242.5 -130.5q61 0 139 31t142 90v639q-63 59 -141 89t-140 30q-168 0 -242.5 -128t-74.5 -308z" />
<glyph unicode="h" horiz-adv-x="1056" d="M164 0v1425l100 21v-604q63 72 160.5 125t189.5 53q160 0 227.5 -93t67.5 -237v-688h-100v688q0 102 -50 173t-159 73q-66 0 -166 -50t-170 -138v-748h-100z" />
<glyph unicode="i" horiz-adv-x="444" d="M143 1307q0 33 21.5 55t56.5 22q33 0 56.5 -22.5t23.5 -54.5q0 -33 -23.5 -55.5t-56.5 -22.5q-35 0 -56.5 22.5t-21.5 55.5zM172 0v993h100v-993h-100z" />
<glyph unicode="j" horiz-adv-x="444" d="M-27 -375q102 39 150.5 93t48.5 171v1104h100v-1120q0 -129 -57 -201.5t-205 -120.5zM143 1307q0 33 21.5 55t56.5 22q33 0 56.5 -22.5t23.5 -54.5q0 -33 -23.5 -55.5t-56.5 -22.5q-35 0 -56.5 22.5t-21.5 55.5z" />
<glyph unicode="k" horiz-adv-x="927" d="M164 0v1425l100 21v-905l461 479l76 -64l-318 -315l437 -641h-121l-383 573l-152 -151v-422h-100z" />
<glyph unicode="l" horiz-adv-x="428" d="M164 0v1425l100 21v-1446h-100z" />
<glyph unicode="m" horiz-adv-x="1624" d="M164 0v993h57l41 -121q63 61 150.5 104.5t169.5 43.5q109 0 168 -45t92 -121q63 68 157.5 117t182.5 49q162 0 228.5 -93t66.5 -237v-690h-101v690q0 102 -51 173t-158 73q-70 0 -148.5 -43t-148.5 -119q2 -18 3 -30.5t1 -28.5v-715h-100v690q0 102 -49 173t-156 73 q-72 0 -153.5 -44t-151.5 -126v-766h-100z" />
<glyph unicode="n" horiz-adv-x="1056" d="M164 0v993h57l41 -155q63 74 161.5 128t190.5 54q160 0 227.5 -93t67.5 -237v-690h-100v690q0 102 -50 173t-159 73q-66 0 -166 -51t-170 -140v-745h-100z" />
<glyph unicode="o" d="M98 502q2 219 102.5 368.5t313.5 149.5q219 0 312.5 -150.5t93.5 -380.5q0 -225 -105.5 -370.5t-320.5 -145.5t-305.5 151.5t-90.5 377.5zM203 504q0 -182 63.5 -316.5t229.5 -134.5t242.5 129t76.5 307t-64.5 314.5t-232.5 136.5q-164 0 -239.5 -131t-75.5 -305z" />
<glyph unicode="p" horiz-adv-x="1064" d="M164 -449v1442h57l31 -92q63 49 140 84t149 35q219 0 322.5 -148.5t103.5 -375.5t-103.5 -375t-322.5 -148q-70 0 -142.5 30t-134.5 79v-508zM264 176q63 -59 141 -89t140 -30q168 0 242.5 128t74.5 309q0 182 -74.5 312t-242.5 130q-61 0 -139 -31t-142 -90v-639z" />
<glyph unicode="q" horiz-adv-x="1064" d="M98 494q0 229 104.5 377.5t321.5 148.5q72 0 149 -35t140 -84l33 92h55v-1419l-100 -23v531q-59 -49 -134 -79t-143 -30q-217 0 -321.5 146.5t-104.5 374.5zM203 500q0 -182 74.5 -312.5t242.5 -130.5q61 0 139 31t142 90v639q-63 59 -141 89t-140 30q-168 0 -242.5 -128 t-74.5 -308z" />
<glyph unicode="r" horiz-adv-x="634" d="M164 0v993h57l37 -137q53 45 140 91t165 46l35 -78q-94 0 -185 -50t-149 -113v-752h-100z" />
<glyph unicode="s" horiz-adv-x="876" d="M115 51l37 84q53 -27 121.5 -52.5t146.5 -25.5q123 0 192.5 51.5t69.5 135.5q0 72 -76 127t-186 98q-115 45 -202 112.5t-87 163.5q0 117 87 196t255 79q63 0 146 -22.5t135 -59.5l-41 -72q-41 20 -101.5 45t-152.5 25q-104 0 -168 -55.5t-64 -126.5q0 -70 74 -119 t176 -90q121 -49 211 -119t90 -174q0 -131 -86 -205t-276 -74q-61 0 -152.5 19.5t-148.5 58.5z" />
<glyph unicode="t" horiz-adv-x="589" d="M37 887v76h147v268l101 45v-313h180l43 -76h-223v-635q0 -74 31.5 -134.5t107.5 -60.5q23 0 48.5 7.5t35.5 11.5l24 -78q-20 -4 -56 -14.5t-79 -10.5q-96 0 -154.5 68t-58.5 197v649h-147z" />
<glyph unicode="u" horiz-adv-x="1015" d="M147 307v686h101v-692q0 -100 51 -171t156 -71q57 0 141 38t156 106v790h100v-993h-59l-39 113q-63 -57 -146.5 -97.5t-163.5 -40.5q-164 0 -230.5 92.5t-66.5 239.5z" />
<glyph unicode="v" horiz-adv-x="892" d="M20 973l107 20l328 -878l315 878h102l-368 -993h-96z" />
<glyph unicode="w" horiz-adv-x="1490" d="M20 973l107 20l285 -862l293 862h86l299 -862l278 862h102l-335 -993h-97l-299 838l-276 -838h-96z" />
<glyph unicode="x" horiz-adv-x="911" d="M20 0l367 500l-338 473l101 20l315 -446l315 446h111l-373 -518l346 -475h-112l-314 424l-303 -424h-115z" />
<glyph unicode="y" horiz-adv-x="892" d="M20 973l107 20l328 -878l315 878h102l-448 -1222q-31 -84 -102.5 -141.5t-169.5 -78.5l-11 78q78 27 127 64t76 106l64 201z" />
<glyph unicode="z" horiz-adv-x="897" d="M66 63l647 855h-555l-33 75h704l7 -65l-654 -852h621l20 -76h-741z" />
<glyph unicode="{" horiz-adv-x="542" d="M61 590v78h68q61 0 110.5 48t49.5 124q0 63 -37 147t-37 148q0 98 62.5 156.5t191.5 58.5h53l-18 -80h-39q-76 0 -112 -40t-36 -83q0 -55 39 -145.5t39 -143.5q0 -90 -40 -147t-91 -82q51 -25 91 -82.5t40 -147.5q0 -53 -39 -143t-39 -145q0 -43 36 -83t112 -40h39 l18 -80h-53q-129 0 -191.5 58.5t-62.5 156.5q0 63 37 147t37 148q0 76 -49.5 124t-110.5 48h-68z" />
<glyph unicode="|" horiz-adv-x="509" d="M205 0v1454l100 -8v-1454z" />
<glyph unicode="}" horiz-adv-x="542" d="M20 -92l19 80h39q76 0 111.5 40t35.5 83q0 55 -39 145t-39 143q0 90 40.5 147.5t91.5 82.5q-51 25 -91.5 82t-40.5 147q0 53 39 143.5t39 145.5q0 43 -35.5 83t-111.5 40h-39l-19 80h54q129 0 191.5 -58.5t62.5 -156.5q0 -63 -37 -147.5t-37 -147.5q0 -76 49 -124 t111 -48h67v-78h-67q-61 0 -110.5 -48t-49.5 -124q0 -63 37 -147.5t37 -147.5q0 -98 -62.5 -156.5t-191.5 -58.5h-54z" />
<glyph unicode="~" horiz-adv-x="765" d="M61 440q0 72 48.5 118t130.5 46q86 0 159.5 -49t126.5 -49q39 0 68 23.5t29 62.5h82q0 -72 -48.5 -118t-128.5 -46q-70 0 -143.5 49t-144.5 49q-39 0 -68 -23.5t-29 -62.5h-82z" />
<glyph unicode="&#xa1;" horiz-adv-x="282" d="M61 0l19 1102l92 -43v-1059h-111zM63 1360q0 33 23.5 55.5t56.5 22.5q35 0 56.5 -22.5t21.5 -55.5t-21.5 -55.5t-56.5 -22.5q-33 0 -56.5 22.5t-23.5 55.5z" />
<glyph unicode="&#xa2;" horiz-adv-x="919" d="M98 502q0 209 99.5 353t294.5 161v223h90v-221q57 -6 122.5 -28.5t116.5 -55.5l-41 -68q-51 25 -100 47.5t-143 22.5q-164 0 -249 -129t-85 -303q0 -182 77.5 -314.5t245.5 -132.5q102 0 146.5 21.5t97.5 48.5l41 -70q-49 -31 -110.5 -51t-118.5 -29v-204h-90v202 q-203 12 -298.5 159t-95.5 368z" />
<glyph unicode="&#xa3;" horiz-adv-x="892" d="M123 760h149v356q0 129 52.5 207t162.5 78q41 0 78 -9.5t58 -17.5l-25 -76q-12 6 -37.5 12.5t-46.5 6.5q-78 0 -109.5 -47t-31.5 -121v-389h286l46 -76h-332v-391q0 -70 -12.5 -122t-57.5 -91h537l12 -80h-709l-4 80q74 2 103.5 49t29.5 121v434h-145z" />
<glyph unicode="&#xa4;" horiz-adv-x="1353" d="M61 -45l215 213q-47 68 -72.5 153t-25.5 183q0 90 25.5 171t75.5 146l-218 213l60 66l217 -211q66 61 155 96t193 35q102 0 186 -35t146 -94l215 209l59 -66l-215 -213q47 -70 73 -154.5t26 -177.5q0 -88 -27 -169.5t-78 -147.5l221 -217l-59 -66l-223 215 q-63 -61 -151.5 -96t-192.5 -35q-100 0 -183.5 33t-146.5 92l-215 -209zM283 504q0 -193 108.5 -320t274.5 -127q178 0 291.5 127t113.5 305t-100.5 312.5t-284.5 134.5q-178 0 -290.5 -129t-112.5 -303z" />
<glyph unicode="&#xa5;" horiz-adv-x="1138" d="M20 1370l113 23l430 -738l438 738h117l-471 -783h328l10 -80h-371v-266h361l10 -80h-371v-184h-100v184h-350l-10 80h360v266h-350l-10 80h321z" />
<glyph unicode="&#xa6;" horiz-adv-x="509" d="M205 0v598l100 -8v-598zM205 840v614l100 -8v-615z" />
<glyph unicode="&#xa7;" horiz-adv-x="1228" d="M135 879q0 84 42 153.5t118 114.5q-12 27 -18.5 57.5t-6.5 63.5q0 141 113 235t309 94q102 0 192.5 -24.5t151.5 -54.5l-45 -74q-53 25 -120.5 47t-174.5 22q-147 0 -233 -74.5t-86 -181.5q0 -233 370.5 -359t370.5 -404q0 -88 -40 -161t-120 -118q12 -27 18.5 -54.5 t6.5 -56.5q0 -154 -119 -251t-346 -97q-88 0 -213 28t-160 58l31 80q53 -27 145.5 -53.5t194.5 -26.5q176 0 269.5 81t93.5 188q0 225 -372 348t-372 420zM242 868q0 -186 259 -295.5t402 -273.5q53 39 82 91t29 110q0 182 -263.5 287.5t-404.5 277.5q-51 -35 -77.5 -86 t-26.5 -111z" />
<glyph unicode="&#xa8;" horiz-adv-x="518" d="M20 1341q0 33 20.5 53.5t55.5 20.5q31 0 53.5 -20.5t22.5 -53.5t-22.5 -54t-53.5 -21q-35 0 -55.5 21.5t-20.5 53.5zM346 1341q0 33 20.5 53.5t55.5 20.5q31 0 53.5 -20.5t22.5 -53.5t-22.5 -54t-53.5 -21q-35 0 -55.5 21.5t-20.5 53.5z" />
<glyph unicode="&#xa9;" horiz-adv-x="1734" d="M143 688q0 305 197 511t526 206q328 0 526.5 -206t198.5 -511q0 -303 -198.5 -508t-526.5 -205q-340 0 -531.5 205t-191.5 508zM240 690q0 -268 170 -453.5t456 -185.5q287 0 458 185.5t171 453.5t-171 452.5t-458 184.5t-456.5 -184.5t-169.5 -452.5zM471 698 q0 223 125 338t297 115q59 0 137 -23.5t123 -62.5l-41 -64q-41 27 -98.5 48.5t-124.5 21.5q-137 0 -227.5 -99.5t-90.5 -273.5t90.5 -273t227.5 -99q68 0 125 21.5t98 47.5l41 -63q-45 -39 -123 -62.5t-137 -23.5q-172 0 -297 114.5t-125 337.5z" />
<glyph unicode="&#xaa;" horiz-adv-x="704" d="M86 954q0 94 70.5 147.5t175.5 53.5h176v47q0 70 -41 113t-123 43q-70 0 -110.5 -15.5t-77.5 -29.5l-25 65q39 27 104.5 43.5t106.5 16.5q131 0 195.5 -77t64.5 -173v-426h-65l-23 74q-35 -41 -87 -67t-105 -26q-111 0 -173.5 61.5t-62.5 149.5zM178 954q0 -51 39 -96 t105 -45q57 0 105 28.5t81 73.5v177h-158q-88 0 -130 -40.5t-42 -97.5z" />
<glyph unicode="&#xab;" horiz-adv-x="743" d="M61 469v66l287 296l43 -63l-250 -266l250 -266l-43 -64zM373 469v66l286 296l43 -63l-251 -266l251 -266l-43 -64z" />
<glyph unicode="&#xac;" horiz-adv-x="1034" d="M20 831h936l17 -102v-500l-101 11v512h-835z" />
<glyph unicode="&#xad;" horiz-adv-x="245" />
<glyph unicode="&#xae;" horiz-adv-x="1505" d="M102 997q0 270 179.5 453.5t472.5 183.5q287 0 468 -183.5t181 -453.5q0 -268 -181.5 -450t-467.5 -182q-287 0 -469.5 182t-182.5 450zM201 999q0 -233 149.5 -395t403.5 -164q250 2 399.5 164t149.5 395q0 238 -149.5 397.5t-399.5 159.5q-254 0 -403.5 -159.5 t-149.5 -397.5zM547 623v770h178q121 0 200 -50.5t79 -171.5q0 -78 -46.5 -132t-103.5 -78l201 -338h-97l-184 325q-14 0 -29.5 -1t-29.5 -1h-86v-323h-82zM629 1012h71q86 0 150.5 31.5t64.5 125.5q0 100 -58 128t-146 28h-82v-313z" />
<glyph unicode="&#xaf;" horiz-adv-x="534" d="M20 1311v75h494v-75h-494z" />
<glyph unicode="&#xb0;" horiz-adv-x="518" d="M41 1227q0 88 61.5 149.5t155.5 61.5t156.5 -61.5t62.5 -149.5q0 -92 -62.5 -149.5t-156.5 -57.5t-155.5 57.5t-61.5 149.5zM123 1229q0 -51 38.5 -98.5t104.5 -47.5q68 0 99.5 47.5t31.5 98.5t-37.5 97t-101.5 46q-63 0 -99 -46t-36 -97z" />
<glyph unicode="&#xb1;" horiz-adv-x="1007" d="M61 76h869l16 -76h-868zM61 707h383v387l101 -7v-380h370l17 -76h-387v-410l-101 10v400h-366z" />
<glyph unicode="&#xb2;" horiz-adv-x="759" d="M61 688v76l320 291q100 92 134 157.5t34 112.5q0 57 -43 119.5t-148 62.5q-78 0 -144.5 -33.5t-68.5 -35.5l-34 63q2 0 74.5 39t176.5 39q143 0 211 -78t68 -164t-48 -164.5t-159 -179.5l-268 -237h491l13 -68h-609z" />
<glyph unicode="&#xb3;" horiz-adv-x="784" d="M41 651l49 66q53 -33 108.5 -50.5t143.5 -17.5q92 0 166 53.5t74 147.5q0 100 -59.5 156.5t-219.5 56.5h-51l-14 67h75q127 0 187.5 56.5t60.5 144.5q0 70 -55 122t-150 52q-88 0 -150.5 -26.5t-101.5 -51.5l-45 62q61 39 133 64.5t166 25.5q154 0 225.5 -72.5 t71.5 -173.5q0 -84 -47 -146.5t-116 -84.5q88 -20 135 -87t47 -163q0 -119 -89 -201t-251 -82q-86 0 -163 26t-130 56z" />
<glyph unicode="&#xb4;" horiz-adv-x="290" d="M20 1206l123 314h127l-176 -314h-74z" />
<glyph unicode="&#xb5;" horiz-adv-x="1032" d="M164 -449v1442h100v-692q0 -100 51.5 -171t155.5 -71q57 0 141 34t156 102v798h100v-993h-59l-39 113q-63 -57 -146 -97.5t-163 -40.5q-63 0 -113.5 15.5t-83.5 42.5v-459z" />
<glyph unicode="&#xb6;" horiz-adv-x="1662" d="M111 973q0 213 141 316.5t360 103.5h990v-80h-230v-1313h-100v1313h-459v-1313h-100v541h-78q-217 0 -370.5 109.5t-153.5 322.5z" />
<glyph unicode="&#xb7;" horiz-adv-x="280" d="M61 537q0 33 21.5 55t56.5 22q33 0 56.5 -22.5t23.5 -54.5q0 -33 -23.5 -55.5t-56.5 -22.5q-35 0 -56.5 22.5t-21.5 55.5z" />
<glyph unicode="&#xb8;" horiz-adv-x="421" d="M20 -414l31 64q18 -8 53 -18.5t68 -10.5q63 0 103 28.5t40 67.5q0 43 -52 84t-150 41l69 185h84l-51 -131q92 -16 139 -68.5t47 -106.5q0 -78 -61 -126t-162 -48q-37 0 -84 11.5t-74 27.5z" />
<glyph unicode="&#xb9;" horiz-adv-x="608" d="M111 688v68h161v702l-110 -76l-47 52l196 133h49v-811h136l14 -68h-399z" />
<glyph unicode="&#xba;" horiz-adv-x="704" d="M41 1090q0 160 94 254t215 94q123 0 218.5 -91.5t95.5 -256.5q0 -160 -93.5 -253.5t-218.5 -93.5q-123 0 -217 90.5t-94 256.5zM133 1090q0 -127 66.5 -200t152.5 -73q82 0 150.5 69.5t68.5 203.5q0 129 -63.5 202.5t-157.5 73.5q-80 0 -148.5 -71.5t-68.5 -204.5z" />
<glyph unicode="&#xbb;" horiz-adv-x="743" d="M41 236l252 266l-252 266l43 63l287 -296v-66l-287 -297zM352 236l250 266l-250 266l43 63l287 -296v-66l-287 -297z" />
<glyph unicode="&#xbc;" horiz-adv-x="1474" d="M111 688v68h161v702l-110 -76l-47 52l196 133h49v-811h136l14 -68h-399zM307 0l594 1026l92 -6l-594 -1028zM664 -63l518 720h57v-720h174l-8 -70h-166v-201h-90v201h-477zM760 -63h389v550z" />
<glyph unicode="&#xbd;" horiz-adv-x="1601" d="M111 688v68h161v702l-110 -76l-47 52l196 133h49v-811h136l14 -68h-399zM307 0l594 1026l92 -6l-594 -1028zM903 -150l320 291q100 92 134 158t34 113q0 57 -43 119.5t-148 62.5q-78 0 -144.5 -34t-68.5 -36l-35 64q2 0 75 39t177 39q143 0 211 -78t68 -164t-48.5 -165 t-158.5 -179l-268 -238h491l12 -67h-608v75z" />
<glyph unicode="&#xbe;" horiz-adv-x="1644" d="M41 651l49 66q53 -33 108.5 -50.5t143.5 -17.5q92 0 166 53.5t74 147.5q0 100 -59.5 156.5t-219.5 56.5h-51l-14 67h75q127 0 187.5 56.5t60.5 144.5q0 70 -55 122t-150 52q-88 0 -150.5 -26.5t-101.5 -51.5l-45 62q61 39 133 64.5t166 25.5q154 0 225.5 -72.5 t71.5 -173.5q0 -84 -47 -146.5t-116 -84.5q88 -20 135 -87t47 -163q0 -119 -89 -201t-251 -82q-86 0 -163 26t-130 56zM477 0l594 1026l92 -6l-594 -1028zM834 -63l518 720h57v-720h174l-8 -70h-166v-201h-90v201h-477zM930 -63h389v550z" />
<glyph unicode="&#xbf;" horiz-adv-x="802" d="M61 172q0 117 92.5 231.5t262.5 190.5l20 399l68 -43l14 -420q-160 -51 -254 -145t-94 -211q0 -123 69.5 -188.5t186.5 -65.5q111 0 185.5 34t154.5 91l16 -84q-53 -47 -146 -86t-214 -39q-182 0 -271.5 94.5t-89.5 241.5zM408 1196q0 33 23 55.5t56 22.5 q35 0 56.5 -22.5t21.5 -55.5t-21.5 -55.5t-56.5 -22.5q-33 0 -56 22.5t-23 55.5z" />
<glyph unicode="&#xc0;" horiz-adv-x="1212" d="M41 0l506 1393h94l530 -1370l-102 -23l-166 436h-604l-158 -436h-100zM328 516h546l-278 741zM420 1827h125l125 -314h-76z" />
<glyph unicode="&#xc1;" horiz-adv-x="1212" d="M41 0l506 1393h94l530 -1370l-102 -23l-166 436h-604l-158 -436h-100zM328 516h546l-278 741zM512 1513l123 314h127l-176 -314h-74z" />
<glyph unicode="&#xc2;" horiz-adv-x="1212" d="M41 0l506 1393h94l530 -1370l-102 -23l-166 436h-604l-158 -436h-100zM317 1516l236 313h82l237 -313h-106l-170 241l-176 -241h-103zM328 516h546l-278 741z" />
<glyph unicode="&#xc3;" horiz-adv-x="1212" d="M41 0l506 1393h94l530 -1370l-102 -23l-166 436h-604l-158 -436h-100zM305 1561q0 96 50.5 141t119.5 45q86 0 132 -58.5t100 -58.5q43 0 65.5 31t26.5 78h78q0 -96 -50.5 -141.5t-119.5 -45.5q-70 0 -124.5 58.5t-105.5 58.5q-45 0 -66.5 -30.5t-25.5 -77.5h-80z M328 516h546l-278 741z" />
<glyph unicode="&#xc4;" horiz-adv-x="1212" d="M41 0l506 1393h94l530 -1370l-102 -23l-166 436h-604l-158 -436h-100zM328 516h546l-278 741zM356 1649q0 33 20.5 53t55.5 20q31 0 53.5 -20.5t22.5 -52.5q0 -33 -22.5 -54.5t-53.5 -21.5q-35 0 -55.5 21.5t-20.5 54.5zM682 1649q0 33 20.5 53t55.5 20q31 0 53.5 -20.5 t22.5 -52.5q0 -33 -22.5 -54.5t-53.5 -21.5q-35 0 -55.5 21.5t-20.5 54.5z" />
<glyph unicode="&#xc5;" horiz-adv-x="1212" d="M41 0l506 1393h94l530 -1370l-102 -23l-166 436h-604l-158 -436h-100zM328 516h546l-278 741zM412 1690q0 74 54 123t128 49t127 -49.5t53 -122.5q0 -72 -53 -119t-127 -47t-128 47t-54 119zM492 1690q0 -45 28.5 -75t73.5 -30t72.5 30t27.5 75q0 47 -27.5 77.5 t-72.5 30.5t-73.5 -30.5t-28.5 -77.5z" />
<glyph unicode="&#xc6;" horiz-adv-x="1738" d="M20 20l852 1373h727l11 -80h-621v-559h410l10 -80h-420v-594h656l12 -80h-768v436h-500l-266 -436zM438 516h451v735z" />
<glyph unicode="&#xc7;" horiz-adv-x="1165" d="M135 688q0 305 146.5 519t447.5 214q63 0 170 -18.5t164 -56.5l-41 -74q-63 27 -124.5 44t-172.5 17q-219 -2 -348 -175t-129 -468q0 -250 110.5 -440.5t348.5 -190.5q111 0 181 18.5t126 43.5l49 -74q-51 -27 -138 -48.5t-169 -25.5l-29 -77q92 -16 139 -68.5t47 -106.5 q0 -78 -61 -126t-162 -48q-37 0 -84 11.5t-74 27.5l31 64q18 -8 53 -18.5t68 -10.5q63 0 103 28.5t40 67.5q0 43 -52 84t-150 41l49 131q-295 14 -417 227.5t-122 487.5z" />
<glyph unicode="&#xc8;" horiz-adv-x="1054" d="M205 0v1393h710l11 -80h-621v-559h410l10 -80h-420v-594h656l12 -80h-768zM367 1827h125l124 -314h-75z" />
<glyph unicode="&#xc9;" horiz-adv-x="1054" d="M205 0v1393h710l11 -80h-621v-559h410l10 -80h-420v-594h656l12 -80h-768zM459 1513l123 314h127l-177 -314h-73z" />
<glyph unicode="&#xca;" horiz-adv-x="1054" d="M205 0v1393h710l11 -80h-621v-559h410l10 -80h-420v-594h656l12 -80h-768zM264 1516l236 313h82l237 -313h-106l-170 241l-176 -241h-103z" />
<glyph unicode="&#xcb;" horiz-adv-x="1054" d="M205 0v1393h710l11 -80h-621v-559h410l10 -80h-420v-594h656l12 -80h-768zM303 1649q0 33 20.5 53t55.5 20q31 0 53.5 -20.5t22.5 -52.5q0 -33 -22.5 -54.5t-53.5 -21.5q-35 0 -55.5 21.5t-20.5 54.5zM629 1649q0 33 20.5 53t55.5 20q31 0 53 -20.5t22 -52.5 q0 -33 -22 -54.5t-53 -21.5q-35 0 -55.5 21.5t-20.5 54.5z" />
<glyph unicode="&#xcc;" horiz-adv-x="509" d="M68 1827h125l124 -314h-75zM205 0v1393h100v-1393h-100z" />
<glyph unicode="&#xcd;" horiz-adv-x="509" d="M205 0v1393h100v-1393h-100zM207 1513l123 314h127l-176 -314h-74z" />
<glyph unicode="&#xce;" horiz-adv-x="509" d="M-23 1516l236 313h82l237 -313h-106l-170 241l-176 -241h-103zM205 0v1393h100v-1393h-100z" />
<glyph unicode="&#xcf;" horiz-adv-x="509" d="M16 1649q0 33 20.5 53t55.5 20q31 0 53.5 -20.5t22.5 -52.5q0 -33 -22.5 -54.5t-53.5 -21.5q-35 0 -55.5 21.5t-20.5 54.5zM205 0v1393h100v-1393h-100zM342 1649q0 33 20.5 53t55.5 20q31 0 53.5 -20.5t22.5 -52.5q0 -33 -22.5 -54.5t-53.5 -21.5q-35 0 -55.5 21.5 t-20.5 54.5z" />
<glyph unicode="&#xd0;" horiz-adv-x="1347" d="M20 723h185v670h418q322 0 455.5 -202t133.5 -486q0 -291 -145 -498t-451 -207h-411v643h-164zM305 80h313q219 0 354.5 177t135.5 445q0 248 -115.5 429.5t-353.5 181.5h-334v-590h223l21 -80h-244v-563z" />
<glyph unicode="&#xd1;" horiz-adv-x="1347" d="M205 0v1393h57l711 -1045l69 -121v1166h101v-1393h-56l-753 1116l-29 60v-1176h-100zM387 1561q0 96 50 141t120 45q86 0 132 -58.5t99 -58.5q43 0 66 31t27 78h77q0 -96 -50 -141.5t-120 -45.5t-124 58.5t-105 58.5q-45 0 -66.5 -30.5t-25.5 -77.5h-80z" />
<glyph unicode="&#xd2;" horiz-adv-x="1431" d="M135 690q0 305 151.5 520t436.5 215q303 0 438 -217t135 -501q0 -289 -148.5 -512.5t-436.5 -223.5q-305 0 -440.5 218.5t-135.5 500.5zM248 692q0 -250 110.5 -443.5t348.5 -193.5q219 0 348 189.5t129 460.5q0 250 -109.5 442t-349.5 192q-219 0 -348 -189.5 t-129 -457.5zM549 1827h125l125 -314h-76z" />
<glyph unicode="&#xd3;" horiz-adv-x="1431" d="M135 690q0 305 151.5 520t436.5 215q303 0 438 -217t135 -501q0 -289 -148.5 -512.5t-436.5 -223.5q-305 0 -440.5 218.5t-135.5 500.5zM248 692q0 -250 110.5 -443.5t348.5 -193.5q219 0 348 189.5t129 460.5q0 250 -109.5 442t-349.5 192q-219 0 -348 -189.5 t-129 -457.5zM641 1513l123 314h127l-176 -314h-74z" />
<glyph unicode="&#xd4;" horiz-adv-x="1431" d="M135 690q0 305 151.5 520t436.5 215q303 0 438 -217t135 -501q0 -289 -148.5 -512.5t-436.5 -223.5q-305 0 -440.5 218.5t-135.5 500.5zM248 692q0 -250 110.5 -443.5t348.5 -193.5q219 0 348 189.5t129 460.5q0 250 -109.5 442t-349.5 192q-219 0 -348 -189.5 t-129 -457.5zM446 1516l236 313h82l237 -313h-106l-170 241l-176 -241h-103z" />
<glyph unicode="&#xd5;" horiz-adv-x="1431" d="M135 690q0 305 151.5 520t436.5 215q303 0 438 -217t135 -501q0 -289 -148.5 -512.5t-436.5 -223.5q-305 0 -440.5 218.5t-135.5 500.5zM248 692q0 -250 110.5 -443.5t348.5 -193.5q219 0 348 189.5t129 460.5q0 250 -109.5 442t-349.5 192q-219 0 -348 -189.5 t-129 -457.5zM434 1561q0 96 50.5 141t119.5 45q86 0 132 -58.5t100 -58.5q43 0 65.5 31t26.5 78h78q0 -96 -50.5 -141.5t-119.5 -45.5q-70 0 -124.5 58.5t-105.5 58.5q-45 0 -66.5 -30.5t-25.5 -77.5h-80z" />
<glyph unicode="&#xd6;" horiz-adv-x="1431" d="M135 690q0 305 151.5 520t436.5 215q303 0 438 -217t135 -501q0 -289 -148.5 -512.5t-436.5 -223.5q-305 0 -440.5 218.5t-135.5 500.5zM248 692q0 -250 110.5 -443.5t348.5 -193.5q219 0 348 189.5t129 460.5q0 250 -109.5 442t-349.5 192q-219 0 -348 -189.5 t-129 -457.5zM485 1649q0 33 20.5 53t55.5 20q31 0 53.5 -20.5t22.5 -52.5q0 -33 -22.5 -54.5t-53.5 -21.5q-35 0 -55.5 21.5t-20.5 54.5zM811 1649q0 33 20.5 53t55.5 20q31 0 53.5 -20.5t22.5 -52.5q0 -33 -22.5 -54.5t-53.5 -21.5q-35 0 -55.5 21.5t-20.5 54.5z" />
<glyph unicode="&#xd7;" horiz-adv-x="962" d="M61 84l347 422l-342 424l92 20l311 -391l328 391h104l-375 -458l340 -429h-100l-307 373l-305 -373z" />
<glyph unicode="&#xd8;" horiz-adv-x="1431" d="M135 690q0 305 151.5 520t436.5 215q303 0 438 -217t135 -501q0 -289 -148.5 -512.5t-436.5 -223.5q-305 0 -440.5 218.5t-135.5 500.5zM248 692q0 -166 46 -309t146 -229l484 1134q-43 23 -92.5 35t-106.5 12q-219 0 -348 -187t-129 -456zM524 98q39 -20 85 -29.5 t98 -9.5q219 0 348 187.5t129 458.5q0 160 -43 300t-137 226z" />
<glyph unicode="&#xd9;" horiz-adv-x="1331" d="M184 489v904h101v-910q0 -178 102 -301t279 -123q182 0 281.5 123t99.5 301v910h100v-904q0 -223 -122 -368.5t-359 -145.5q-236 0 -359 145.5t-123 368.5zM492 1827h124l125 -314h-75z" />
<glyph unicode="&#xda;" horiz-adv-x="1331" d="M184 489v904h101v-910q0 -178 102 -301t279 -123q182 0 281.5 123t99.5 301v910h100v-904q0 -223 -122 -368.5t-359 -145.5q-236 0 -359 145.5t-123 368.5zM584 1513l123 314h127l-177 -314h-73z" />
<glyph unicode="&#xdb;" horiz-adv-x="1331" d="M184 489v904h101v-910q0 -178 102 -301t279 -123q182 0 281.5 123t99.5 301v910h100v-904q0 -223 -122 -368.5t-359 -145.5q-236 0 -359 145.5t-123 368.5zM389 1516l236 313h82l237 -313h-106l-170 241l-176 -241h-103z" />
<glyph unicode="&#xdc;" horiz-adv-x="1331" d="M184 489v904h101v-910q0 -178 102 -301t279 -123q182 0 281.5 123t99.5 301v910h100v-904q0 -223 -122 -368.5t-359 -145.5q-236 0 -359 145.5t-123 368.5zM440 1649q0 33 20.5 53t55.5 20q31 0 53.5 -20.5t22.5 -52.5q0 -33 -22.5 -54.5t-53.5 -21.5q-35 0 -55.5 21.5 t-20.5 54.5zM766 1649q0 33 20.5 53t55.5 20q31 0 53.5 -20.5t22.5 -52.5q0 -33 -22.5 -54.5t-53.5 -21.5q-35 0 -55.5 21.5t-20.5 54.5z" />
<glyph unicode="&#xdd;" horiz-adv-x="1097" d="M20 1370l113 23l410 -736l418 736h116l-483 -832v-561h-100v551zM463 1513l123 314h127l-176 -314h-74z" />
<glyph unicode="&#xde;" horiz-adv-x="1150" d="M205 0v1393h100v-242h234q217 0 359 -96.5t142 -323.5q0 -225 -153.5 -328.5t-370.5 -103.5h-211v-299h-100zM305 379h236q164 0 280.5 88t116.5 262q0 180 -103.5 260t-271.5 80h-258v-690z" />
<glyph unicode="&#xdf;" horiz-adv-x="1165" d="M184 0v969q0 199 105.5 311.5t296.5 112.5q160 0 273.5 -92.5t113.5 -270.5q0 -109 -52.5 -185.5t-144.5 -115.5q111 -31 188.5 -121t77.5 -223q0 -219 -153.5 -302t-370.5 -83h-78v80h105q164 0 277.5 69.5t113.5 231.5q0 156 -101.5 228.5t-269.5 72.5h-92v80h55 q184 0 261 68.5t77 197.5q0 135 -82 208t-192 73q-152 0 -228.5 -100.5t-76.5 -239.5v-969h-103z" />
<glyph unicode="&#xe0;" horiz-adv-x="985" d="M106 279q0 141 99.5 218.5t255.5 77.5h276v123q0 102 -58 170t-179 68q-100 0 -162 -20.5t-123 -49.5l-39 68q57 39 156.5 62.5t161.5 23.5q170 0 257 -89t87 -235v-696h-58l-37 106q-51 -57 -129.5 -95t-173.5 -38q-168 0 -251 88.5t-83 217.5zM211 279q0 -92 63.5 -157 t174.5 -65q96 0 168.5 48.5t119.5 117.5v277h-268q-135 0 -196.5 -64.5t-61.5 -156.5zM324 1520h125l124 -314h-75z" />
<glyph unicode="&#xe1;" horiz-adv-x="985" d="M106 279q0 141 99.5 218.5t255.5 77.5h276v123q0 102 -58 170t-179 68q-100 0 -162 -20.5t-123 -49.5l-39 68q57 39 156.5 62.5t161.5 23.5q170 0 257 -89t87 -235v-696h-58l-37 106q-51 -57 -129.5 -95t-173.5 -38q-168 0 -251 88.5t-83 217.5zM211 279q0 -92 63.5 -157 t174.5 -65q96 0 168.5 48.5t119.5 117.5v277h-268q-135 0 -196.5 -64.5t-61.5 -156.5zM416 1206l123 314h127l-177 -314h-73z" />
<glyph unicode="&#xe2;" horiz-adv-x="985" d="M106 279q0 141 99.5 218.5t255.5 77.5h276v123q0 102 -58 170t-179 68q-100 0 -162 -20.5t-123 -49.5l-39 68q57 39 156.5 62.5t161.5 23.5q170 0 257 -89t87 -235v-696h-58l-37 106q-51 -57 -129.5 -95t-173.5 -38q-168 0 -251 88.5t-83 217.5zM211 279q0 -92 63.5 -157 t174.5 -65q96 0 168.5 48.5t119.5 117.5v277h-268q-135 0 -196.5 -64.5t-61.5 -156.5zM221 1206l236 314h82l237 -314h-106l-170 242l-176 -242h-103z" />
<glyph unicode="&#xe3;" horiz-adv-x="985" d="M106 279q0 141 99.5 218.5t255.5 77.5h276v123q0 102 -58 170t-179 68q-100 0 -162 -20.5t-123 -49.5l-39 68q57 39 156.5 62.5t161.5 23.5q170 0 257 -89t87 -235v-696h-58l-37 106q-51 -57 -129.5 -95t-173.5 -38q-168 0 -251 88.5t-83 217.5zM209 1253q0 96 50 141.5 t120 45.5q86 0 132 -58.5t99 -58.5q43 0 65.5 30.5t26.5 78.5h78q0 -96 -50 -141.5t-120 -45.5t-124 58.5t-105 58.5q-45 0 -66.5 -31t-25.5 -78h-80zM211 279q0 -92 63.5 -157t174.5 -65q96 0 168.5 48.5t119.5 117.5v277h-268q-135 0 -196.5 -64.5t-61.5 -156.5z" />
<glyph unicode="&#xe4;" horiz-adv-x="985" d="M106 279q0 141 99.5 218.5t255.5 77.5h276v123q0 102 -58 170t-179 68q-100 0 -162 -20.5t-123 -49.5l-39 68q57 39 156.5 62.5t161.5 23.5q170 0 257 -89t87 -235v-696h-58l-37 106q-51 -57 -129.5 -95t-173.5 -38q-168 0 -251 88.5t-83 217.5zM211 279q0 -92 63.5 -157 t174.5 -65q96 0 168.5 48.5t119.5 117.5v277h-268q-135 0 -196.5 -64.5t-61.5 -156.5zM260 1341q0 33 20.5 53.5t55.5 20.5q31 0 53.5 -20.5t22.5 -53.5t-22.5 -54t-53.5 -21q-35 0 -55.5 21.5t-20.5 53.5zM586 1341q0 33 20.5 53.5t55.5 20.5q31 0 53 -20.5t22 -53.5 t-22 -54t-53 -21q-35 0 -55.5 21.5t-20.5 53.5z" />
<glyph unicode="&#xe5;" horiz-adv-x="985" d="M106 279q0 141 99.5 218.5t255.5 77.5h276v123q0 102 -58 170t-179 68q-100 0 -162 -20.5t-123 -49.5l-39 68q57 39 156.5 62.5t161.5 23.5q170 0 257 -89t87 -235v-696h-58l-37 106q-51 -57 -129.5 -95t-173.5 -38q-168 0 -251 88.5t-83 217.5zM211 279q0 -92 63.5 -157 t174.5 -65q96 0 168.5 48.5t119.5 117.5v277h-268q-135 0 -196.5 -64.5t-61.5 -156.5zM315 1382q0 74 54.5 123t128.5 49t127 -49t53 -123q0 -72 -53.5 -118.5t-126.5 -46.5q-74 0 -128.5 47t-54.5 118zM395 1382q0 -45 29 -74.5t74 -29.5t72.5 29.5t27.5 74.5 q0 47 -27.5 78t-72.5 31t-74 -30.5t-29 -78.5z" />
<glyph unicode="&#xe6;" horiz-adv-x="1656" d="M106 279q0 141 99.5 218.5t255.5 77.5h276v123q0 102 -58 170t-179 68q-100 0 -162 -20.5t-123 -49.5l-39 68q57 39 156.5 62.5t161.5 23.5q129 0 209.5 -52.5t113.5 -142.5q53 90 145.5 142.5t219.5 52.5q178 0 277.5 -148.5t99.5 -375.5h-715q2 -178 84 -308.5 t266 -130.5q109 0 175.5 21.5t117.5 48.5l41 -76q-61 -39 -153.5 -58.5t-151.5 -19.5q-145 0 -247 55.5t-159 149.5q-45 -68 -143.5 -136.5t-233.5 -68.5q-168 0 -251 88.5t-83 217.5zM211 279q0 -92 63.5 -157t174.5 -65q123 0 201.5 65.5t125.5 145.5q-18 51 -27.5 109.5 t-11.5 122.5h-268q-135 0 -196.5 -64.5t-61.5 -156.5zM848 571h604q-14 145 -79.5 255t-213.5 110q-147 0 -222 -109.5t-89 -255.5z" />
<glyph unicode="&#xe7;" horiz-adv-x="919" d="M98 502q0 223 112 370.5t331 147.5q59 0 140 -23.5t140 -62.5l-41 -68q-51 25 -100 47.5t-143 22.5q-164 0 -249 -129t-85 -303q0 -182 77.5 -314.5t245.5 -132.5q102 0 146.5 21.5t97.5 48.5l41 -70q-59 -37 -135 -59.5t-139 -24.5l-31 -77q92 -16 139 -68.5t47 -106.5 q0 -78 -61.5 -126t-161.5 -48q-37 0 -84 11.5t-74 27.5l31 64q18 -8 53 -18.5t68 -10.5q63 0 103 28.5t40 67.5q0 43 -52 84t-151 41l52 138q-182 25 -269.5 168t-87.5 354z" />
<glyph unicode="&#xe8;" horiz-adv-x="1015" d="M98 502q0 223 107.5 370.5t326.5 147.5q172 0 279 -148.5t107 -375.5h-715q2 -178 84 -308.5t266 -130.5q109 0 175.5 21.5t117.5 48.5l41 -76q-61 -39 -159.5 -58.5t-158.5 -19.5q-244 0 -357.5 148.5t-113.5 380.5zM207 571h604q-14 145 -79.5 255t-213.5 110 q-147 0 -222 -109.5t-89 -255.5zM348 1520h125l125 -314h-76z" />
<glyph unicode="&#xe9;" horiz-adv-x="1015" d="M98 502q0 223 107.5 370.5t326.5 147.5q172 0 279 -148.5t107 -375.5h-715q2 -178 84 -308.5t266 -130.5q109 0 175.5 21.5t117.5 48.5l41 -76q-61 -39 -159.5 -58.5t-158.5 -19.5q-244 0 -357.5 148.5t-113.5 380.5zM207 571h604q-14 145 -79.5 255t-213.5 110 q-147 0 -222 -109.5t-89 -255.5zM440 1206l123 314h127l-176 -314h-74z" />
<glyph unicode="&#xea;" horiz-adv-x="1015" d="M98 502q0 223 107.5 370.5t326.5 147.5q172 0 279 -148.5t107 -375.5h-715q2 -178 84 -308.5t266 -130.5q109 0 175.5 21.5t117.5 48.5l41 -76q-61 -39 -159.5 -58.5t-158.5 -19.5q-244 0 -357.5 148.5t-113.5 380.5zM207 571h604q-14 145 -79.5 255t-213.5 110 q-147 0 -222 -109.5t-89 -255.5zM246 1206l235 314h82l238 -314h-107l-170 242l-176 -242h-102z" />
<glyph unicode="&#xeb;" horiz-adv-x="1015" d="M98 502q0 223 107.5 370.5t326.5 147.5q172 0 279 -148.5t107 -375.5h-715q2 -178 84 -308.5t266 -130.5q109 0 175.5 21.5t117.5 48.5l41 -76q-61 -39 -159.5 -58.5t-158.5 -19.5q-244 0 -357.5 148.5t-113.5 380.5zM207 571h604q-14 145 -79.5 255t-213.5 110 q-147 0 -222 -109.5t-89 -255.5zM285 1341q0 33 20.5 53.5t54.5 20.5q31 0 53.5 -20.5t22.5 -53.5t-22.5 -54t-53.5 -21q-35 0 -55 21.5t-20 53.5zM610 1341q0 33 20.5 53.5t55.5 20.5q31 0 53.5 -20.5t22.5 -53.5t-22.5 -54t-53.5 -21q-35 0 -55.5 21.5t-20.5 53.5z" />
<glyph unicode="&#xec;" horiz-adv-x="428" d="M18 1520h125l125 -314h-75zM164 0v993h100v-993h-100z" />
<glyph unicode="&#xed;" horiz-adv-x="428" d="M158 1206l123 314h127l-177 -314h-73zM164 0v993h100v-993h-100z" />
<glyph unicode="&#xee;" horiz-adv-x="428" d="M-63 1206l235 314h82l238 -314h-107l-170 242l-176 -242h-102zM164 0v993h100v-993h-100z" />
<glyph unicode="&#xef;" horiz-adv-x="428" d="M-25 1341q0 33 20.5 53.5t55.5 20.5q31 0 53.5 -20.5t22.5 -53.5t-22.5 -54t-53.5 -21q-35 0 -55.5 21.5t-20.5 53.5zM164 0v993h100v-993h-100zM301 1341q0 33 20.5 53.5t55.5 20.5q31 0 53.5 -20.5t22.5 -53.5t-22.5 -54t-53.5 -21q-35 0 -55.5 21.5t-20.5 53.5z" />
<glyph unicode="&#xf0;" horiz-adv-x="1054" d="M98 389q0 156 106.5 280t297.5 124q92 0 191.5 -46.5t146.5 -128.5q-14 147 -90 290t-199 253l-232 -205l-49 60l222 194q-63 51 -138 92t-157 68l45 60q82 -27 160.5 -69t150.5 -97l154 137l47 -62l-142 -125q147 -129 239.5 -305t92.5 -374q0 -272 -121 -417t-319 -145 q-182 0 -294 128t-112 288zM203 379q0 -117 79.5 -219.5t225.5 -102.5q164 0 245 129t83 322q-45 72 -131.5 136.5t-198.5 64.5q-143 0 -223 -96.5t-80 -233.5z" />
<glyph unicode="&#xf1;" horiz-adv-x="1056" d="M164 0v993h57l41 -155q63 74 161.5 128t190.5 54q160 0 227.5 -93t67.5 -237v-690h-100v690q0 102 -50 173t-159 73q-66 0 -166 -51t-170 -140v-745h-100zM244 1253q0 96 50 141.5t120 45.5q86 0 132 -58.5t99 -58.5q43 0 65.5 30.5t26.5 78.5h78q0 -96 -50 -141.5 t-120 -45.5t-124 58.5t-105 58.5q-45 0 -66.5 -31t-25.5 -78h-80z" />
<glyph unicode="&#xf2;" d="M98 502q2 219 102.5 368.5t313.5 149.5q219 0 312.5 -150.5t93.5 -380.5q0 -225 -105.5 -370.5t-320.5 -145.5t-305.5 151.5t-90.5 377.5zM203 504q0 -182 63.5 -316.5t229.5 -134.5t242.5 129t76.5 307t-64.5 314.5t-232.5 136.5q-164 0 -239.5 -131t-75.5 -305z M338 1520h125l125 -314h-76z" />
<glyph unicode="&#xf3;" d="M98 502q2 219 102.5 368.5t313.5 149.5q219 0 312.5 -150.5t93.5 -380.5q0 -225 -105.5 -370.5t-320.5 -145.5t-305.5 151.5t-90.5 377.5zM203 504q0 -182 63.5 -316.5t229.5 -134.5t242.5 129t76.5 307t-64.5 314.5t-232.5 136.5q-164 0 -239.5 -131t-75.5 -305z M430 1206l123 314h127l-176 -314h-74z" />
<glyph unicode="&#xf4;" d="M98 502q2 219 102.5 368.5t313.5 149.5q219 0 312.5 -150.5t93.5 -380.5q0 -225 -105.5 -370.5t-320.5 -145.5t-305.5 151.5t-90.5 377.5zM203 504q0 -182 63.5 -316.5t229.5 -134.5t242.5 129t76.5 307t-64.5 314.5t-232.5 136.5q-164 0 -239.5 -131t-75.5 -305z M236 1206l235 314h82l238 -314h-107l-170 242l-176 -242h-102z" />
<glyph unicode="&#xf5;" d="M98 502q2 219 102.5 368.5t313.5 149.5q219 0 312.5 -150.5t93.5 -380.5q0 -225 -105.5 -370.5t-320.5 -145.5t-305.5 151.5t-90.5 377.5zM203 504q0 -182 63.5 -316.5t229.5 -134.5t242.5 129t76.5 307t-64.5 314.5t-232.5 136.5q-164 0 -239.5 -131t-75.5 -305z M223 1253q0 96 50.5 141.5t119.5 45.5q86 0 132 -58.5t100 -58.5q43 0 65.5 30.5t26.5 78.5h78q0 -96 -50.5 -141.5t-119.5 -45.5q-70 0 -124.5 58.5t-105.5 58.5q-45 0 -66.5 -31t-25.5 -78h-80z" />
<glyph unicode="&#xf6;" d="M98 502q2 219 102.5 368.5t313.5 149.5q219 0 312.5 -150.5t93.5 -380.5q0 -225 -105.5 -370.5t-320.5 -145.5t-305.5 151.5t-90.5 377.5zM203 504q0 -182 63.5 -316.5t229.5 -134.5t242.5 129t76.5 307t-64.5 314.5t-232.5 136.5q-164 0 -239.5 -131t-75.5 -305z M295 1341q0 33 20.5 53.5t55.5 20.5q31 0 53 -20.5t22 -53.5t-22 -54t-53 -21q-35 0 -55.5 21.5t-20.5 53.5zM621 1341q0 33 20.5 53.5t54.5 20.5q31 0 53.5 -20.5t22.5 -53.5t-22.5 -54t-53.5 -21q-35 0 -55 21.5t-20 53.5z" />
<glyph unicode="&#xf7;" d="M61 598h875l20 -76h-878zM430 850q0 33 21.5 55.5t56.5 22.5q33 0 56.5 -22.5t23.5 -55.5t-23.5 -55.5t-56.5 -22.5q-35 0 -56.5 22.5t-21.5 55.5zM436 229q0 33 21.5 55.5t56.5 22.5q33 0 56.5 -22.5t23.5 -55.5t-23.5 -55t-56.5 -22q-35 0 -56.5 22.5t-21.5 54.5z" />
<glyph unicode="&#xf8;" d="M98 502q2 219 102.5 368.5t313.5 149.5q219 0 312.5 -150.5t93.5 -380.5q0 -225 -105.5 -370.5t-320.5 -145.5t-305.5 151.5t-90.5 377.5zM203 504q0 -106 19.5 -199.5t68.5 -154.5l383 739q-31 23 -70 35t-86 12q-164 0 -239.5 -129t-75.5 -303zM362 88q27 -14 61 -22.5 t73 -8.5q166 0 242.5 127t76.5 305q0 94 -17.5 180.5t-56.5 149.5z" />
<glyph unicode="&#xf9;" horiz-adv-x="1015" d="M147 307v686h101v-692q0 -100 51 -171t156 -71q57 0 141 38t156 106v790h100v-993h-59l-39 113q-63 -57 -146.5 -97.5t-163.5 -40.5q-164 0 -230.5 92.5t-66.5 239.5zM324 1520h125l124 -314h-75z" />
<glyph unicode="&#xfa;" horiz-adv-x="1015" d="M147 307v686h101v-692q0 -100 51 -171t156 -71q57 0 141 38t156 106v790h100v-993h-59l-39 113q-63 -57 -146.5 -97.5t-163.5 -40.5q-164 0 -230.5 92.5t-66.5 239.5zM416 1206l123 314h127l-177 -314h-73z" />
<glyph unicode="&#xfb;" horiz-adv-x="1015" d="M147 307v686h101v-692q0 -100 51 -171t156 -71q57 0 141 38t156 106v790h100v-993h-59l-39 113q-63 -57 -146.5 -97.5t-163.5 -40.5q-164 0 -230.5 92.5t-66.5 239.5zM242 1206l235 314h82l238 -314h-107l-170 242l-176 -242h-102z" />
<glyph unicode="&#xfc;" horiz-adv-x="1015" d="M147 307v686h101v-692q0 -100 51 -171t156 -71q57 0 141 38t156 106v790h100v-993h-59l-39 113q-63 -57 -146.5 -97.5t-163.5 -40.5q-164 0 -230.5 92.5t-66.5 239.5zM281 1341q0 33 20.5 53.5t54.5 20.5q31 0 53.5 -20.5t22.5 -53.5t-22.5 -54t-53.5 -21q-35 0 -55 21.5 t-20 53.5zM606 1341q0 33 20.5 53.5t55.5 20.5q31 0 53.5 -20.5t22.5 -53.5t-22.5 -54t-53.5 -21q-35 0 -55.5 21.5t-20.5 53.5z" />
<glyph unicode="&#xfd;" horiz-adv-x="892" d="M20 973l107 20l328 -878l315 878h102l-448 -1222q-31 -84 -102.5 -141.5t-169.5 -78.5l-11 78q78 27 127 64t76 106l64 201zM377 1206l123 314h127l-176 -314h-74z" />
<glyph unicode="&#xfe;" horiz-adv-x="1064" d="M164 -449v1874l100 21v-535q61 45 134 77t143 32q219 0 322.5 -148.5t103.5 -375.5t-103.5 -375t-322.5 -148q-70 0 -142.5 30t-134.5 79v-508zM264 176q63 -59 141 -89t140 -30q168 0 242.5 128t74.5 309q0 182 -74.5 312t-242.5 130q-61 0 -139 -31t-142 -90v-639z" />
<glyph unicode="&#xff;" horiz-adv-x="892" d="M20 973l107 20l328 -878l315 878h102l-448 -1222q-31 -84 -102.5 -141.5t-169.5 -78.5l-11 78q78 27 127 64t76 106l64 201zM221 1341q0 33 20.5 53.5t55.5 20.5q31 0 53.5 -20.5t22.5 -53.5t-22.5 -54t-53.5 -21q-35 0 -55.5 21.5t-20.5 53.5zM547 1341q0 33 20.5 53.5 t55.5 20.5q31 0 53 -20.5t22 -53.5t-22 -54t-53 -21q-35 0 -55.5 21.5t-20.5 53.5z" />
<glyph unicode="&#x152;" horiz-adv-x="1884" d="M135 688q0 305 153.5 519t454.5 214q51 0 137.5 -16t153.5 -45v33h711l10 -80h-620v-559h409l10 -80h-419v-594h655l12 -80h-768v37q-59 -27 -144 -46.5t-155 -19.5q-319 0 -459.5 216t-140.5 501zM248 690q0 -250 119.5 -440.5t357.5 -190.5q111 0 188.5 26t120.5 52 v1127q-55 27 -122.5 48t-172.5 21q-219 -2 -355 -175t-136 -468z" />
<glyph unicode="&#x153;" horiz-adv-x="1630" d="M98 502q0 223 122 370.5t341 147.5q98 0 175 -29.5t132 -70.5q53 47 126 73.5t161 26.5q178 0 277.5 -148.5t99.5 -375.5h-715q2 -178 84 -308.5t266 -130.5q109 0 175.5 21.5t117.5 48.5l41 -76q-61 -39 -153.5 -58.5t-151.5 -19.5q-104 0 -186 29t-140 80 q-55 -39 -139 -74t-184 -35q-219 0 -334 142.5t-115 386.5zM203 504q0 -182 88 -314.5t256 -132.5q82 0 146.5 22.5t121.5 61.5q-51 70 -76.5 162t-25.5 199q0 104 24.5 194t71.5 158q-41 31 -97.5 56.5t-154.5 25.5q-164 0 -259 -129t-95 -303zM821 571h604 q-14 145 -79.5 255t-212.5 110t-222 -109.5t-90 -255.5z" />
<glyph unicode="&#x178;" horiz-adv-x="1097" d="M20 1370l113 23l410 -736l418 736h116l-483 -832v-561h-100v551zM307 1649q0 33 20.5 53t55.5 20q31 0 53.5 -20.5t22.5 -52.5q0 -33 -22.5 -54.5t-53.5 -21.5q-35 0 -55.5 21.5t-20.5 54.5zM633 1649q0 33 20.5 53t55.5 20q31 0 53 -20.5t22 -52.5q0 -33 -22 -54.5 t-53 -21.5q-35 0 -55.5 21.5t-20.5 54.5z" />
<glyph unicode="&#x2c6;" horiz-adv-x="595" d="M20 1206l236 314h82l237 -314h-106l-170 242l-176 -242h-103z" />
<glyph unicode="&#x2dc;" horiz-adv-x="612" d="M20 1253q0 96 50.5 141.5t119.5 45.5q86 0 132.5 -58.5t99.5 -58.5q43 0 65.5 30.5t26.5 78.5h78q0 -96 -50 -141.5t-120 -45.5t-124 58.5t-105 58.5q-45 0 -67 -31t-26 -78h-80z" />
<glyph unicode="&#x2000;" horiz-adv-x="931" />
<glyph unicode="&#x2001;" horiz-adv-x="1862" />
<glyph unicode="&#x2002;" horiz-adv-x="931" />
<glyph unicode="&#x2003;" horiz-adv-x="1862" />
<glyph unicode="&#x2004;" horiz-adv-x="620" />
<glyph unicode="&#x2005;" horiz-adv-x="465" />
<glyph unicode="&#x2006;" horiz-adv-x="310" />
<glyph unicode="&#x2007;" horiz-adv-x="310" />
<glyph unicode="&#x2008;" horiz-adv-x="232" />
<glyph unicode="&#x2009;" horiz-adv-x="372" />
<glyph unicode="&#x200a;" horiz-adv-x="103" />
<glyph unicode="&#x2010;" horiz-adv-x="636" d="M61 598h498l16 -80h-497z" />
<glyph unicode="&#x2011;" horiz-adv-x="636" d="M61 598h498l16 -80h-497z" />
<glyph unicode="&#x2012;" horiz-adv-x="636" d="M61 598h498l16 -80h-497z" />
<glyph unicode="&#x2013;" horiz-adv-x="884" d="M61 600h746l16 -80h-745z" />
<glyph unicode="&#x2014;" horiz-adv-x="1073" d="M61 600h934l17 -80h-934z" />
<glyph unicode="&#x2018;" horiz-adv-x="311" d="M61 1149q0 94 45.5 171t131.5 118l32 -52q-53 -29 -88 -70.5t-37 -96.5q37 0 55.5 -29t18.5 -49q0 -31 -19.5 -55.5t-58.5 -24.5q-37 0 -58.5 28.5t-21.5 59.5z" />
<glyph unicode="&#x2019;" horiz-adv-x="311" d="M41 1112q53 29 88 71t37 97q-37 0 -55.5 28.5t-18.5 49.5q0 31 19.5 55.5t58.5 24.5q37 0 58.5 -29t21.5 -59q0 -94 -45 -171t-131 -118z" />
<glyph unicode="&#x201a;" horiz-adv-x="311" d="M41 -170q53 29 88 71t37 97q-37 0 -55.5 28.5t-18.5 49.5q0 31 19.5 55.5t58.5 24.5q37 0 58.5 -29t21.5 -59q0 -94 -45 -171t-131 -118z" />
<glyph unicode="&#x201c;" horiz-adv-x="563" d="M61 1149q0 94 45.5 171t131.5 118l32 -52q-53 -29 -88 -70.5t-37 -96.5q37 0 55.5 -29t18.5 -49q0 -31 -19.5 -55.5t-58.5 -24.5q-37 0 -58.5 28.5t-21.5 59.5zM313 1149q0 94 45 171t131 118l33 -52q-53 -29 -88 -70.5t-37 -96.5q37 0 55.5 -29t18.5 -49 q0 -31 -19.5 -55.5t-58.5 -24.5q-37 0 -58.5 28.5t-21.5 59.5z" />
<glyph unicode="&#x201d;" horiz-adv-x="563" d="M41 1112q53 29 88 71t37 97q-37 0 -55.5 28.5t-18.5 49.5q0 31 19.5 55.5t58.5 24.5q37 0 58.5 -29t21.5 -59q0 -94 -45 -171t-131 -118zM293 1112q53 29 88 71t37 97q-37 0 -55.5 28.5t-18.5 49.5q0 31 19.5 55.5t58.5 24.5q37 0 58.5 -29t21.5 -59q0 -94 -45 -171 t-131 -118z" />
<glyph unicode="&#x201e;" horiz-adv-x="563" d="M41 -170q53 29 88 71t37 97q-37 0 -55.5 28.5t-18.5 49.5q0 31 19.5 55.5t58.5 24.5q37 0 58.5 -29t21.5 -59q0 -94 -45 -171t-131 -118zM293 -170q53 29 88 71t37 97q-37 0 -55.5 28.5t-18.5 49.5q0 31 19.5 55.5t58.5 24.5q37 0 58.5 -29t21.5 -59q0 -94 -45 -171 t-131 -118z" />
<glyph unicode="&#x2022;" horiz-adv-x="374" d="M61 668q0 53 37 90t90 37q51 0 88 -37t37 -90q0 -51 -37 -88t-88 -37q-53 0 -90 36.5t-37 88.5z" />
<glyph unicode="&#x2026;" horiz-adv-x="731" d="M61 74q0 33 22.5 53t55.5 20q31 0 51.5 -20.5t20.5 -52.5q0 -33 -20.5 -53.5t-51.5 -20.5q-33 0 -55.5 20.5t-22.5 53.5zM291 74q0 33 22.5 53t55.5 20q31 0 51 -20.5t20 -52.5q0 -33 -20 -53.5t-51 -20.5q-33 0 -55.5 20.5t-22.5 53.5zM520 74q0 33 22.5 53t55.5 20 q31 0 51.5 -20.5t20.5 -52.5q0 -33 -20.5 -53.5t-51.5 -20.5q-33 0 -55.5 20.5t-22.5 53.5z" />
<glyph unicode="&#x202f;" horiz-adv-x="372" />
<glyph unicode="&#x2039;" horiz-adv-x="432" d="M61 473v57l287 306l43 -72l-244 -262l244 -262l-43 -70z" />
<glyph unicode="&#x203a;" horiz-adv-x="432" d="M41 242l244 262l-244 262l43 70l287 -304v-57l-287 -305z" />
<glyph unicode="&#x205f;" horiz-adv-x="465" />
<glyph unicode="&#x20ac;" horiz-adv-x="1153" d="M0 543h170q-2 35 -4 71.5t-2 73.5t2 74t6 72h-162l-10 79h182q41 221 176.5 364.5t378.5 143.5q63 0 159.5 -18.5t154.5 -56.5l-41 -74q-63 27 -114.5 44t-162.5 17q-174 -2 -285.5 -112.5t-150.5 -307.5h524l10 -79h-548q-2 -33 -4.5 -70t-2.5 -74q0 -39 2.5 -75.5 t6.5 -71.5h536l10 -80h-534q35 -172 135 -288t283 -116q111 0 171 18.5t115 43.5l50 -74q-57 -31 -147.5 -53.5t-178.5 -22.5q-256 0 -382 142.5t-161 349.5h-172z" />
<glyph unicode="&#x2122;" horiz-adv-x="1435" d="M20 1327v66h570l6 -66h-242v-700h-90v700h-244zM739 627v766h39l273 -404l262 404h41v-766h-78v569l-213 -313l-25 -4l-215 315v-567h-84z" />
<glyph unicode="&#x25fc;" horiz-adv-x="993" d="M0 0v993h993v-993h-993z" />
<glyph unicode="&#xfb01;" horiz-adv-x="557" d="M57 887v76h150v190q0 129 52 207t163 78q41 0 78 -9.5t57 -17.5l-25 -76q-12 6 -37.5 12.5t-45.5 6.5q-78 0 -110 -47t-32 -121v-223h180l43 -76h-223v-887h-100v887h-150zM700 1307q0 33 21.5 55t56.5 22q33 0 56.5 -22.5t23.5 -54.5q0 -33 -23.5 -55.5t-56.5 -22.5 q-35 0 -56.5 22.5t-21.5 55.5zM729 0v993h100v-993h-100z" />
<glyph unicode="&#xfb02;" horiz-adv-x="557" d="M57 887v76h150v190q0 129 52 207t163 78q41 0 78 -9.5t57 -17.5l-25 -76q-12 6 -37.5 12.5t-45.5 6.5q-78 0 -110 -47t-32 -121v-223h180l43 -76h-223v-887h-100v887h-150zM721 0v1425l100 21v-1446h-100z" />
</font>
</defs>
</svg>
