<?xml version="1.0" encoding="utf-8"?>
<!-- Generator: Adobe Illustrator 18.1.1, SVG Export Plug-In . SVG Version: 6.00 Build 0)  -->
<!DOCTYPE svg PUBLIC "-//W3C//DTD SVG 1.1//EN" "http://www.w3.org/Graphics/SVG/1.1/DTD/svg11.dtd">
<svg version="1.1" id="Layer_1" xmlns="http://www.w3.org/2000/svg" xmlns:xlink="http://www.w3.org/1999/xlink" x="0px" y="0px"
	 viewBox="0 0 80.4 85.2" enable-background="new 0 0 80.4 85.2" xml:space="preserve">
<g>
	<g opacity="0.25">
		<ellipse fill="#B2B2B2" cx="47.4" cy="82.5" rx="29.1" ry="2.7"/>
	</g>
	<g>
		<g>
			<polygon fill="#F2CE1C" points="29,63.9 47.1,82.1 65.3,63.9 56.7,63.9 56.7,49.4 37.6,49.4 37.6,63.9 			"/>
			<path fill="#FFFFFF" d="M47.1,83L27.5,63.3H37V48.7h20.3v14.5h9.6L47.1,83z M30.4,64.5l16.7,16.7l16.7-16.7H56V50H38.3v14.5H30.4
				z"/>
		</g>
		<g>
			<g>
				<rect x="15" y="15.3" fill="#FFFFFF" width="64" height="36.3"/>
			</g>
			<g>
				<rect x="6.9" y="7.5" fill="#FFFFFF" width="66.4" height="37.7"/>
			</g>
			<g>
				<rect x="2.1" y="1.6" fill="#FFFFFF" width="64.6" height="36.8"/>
			</g>
			<g>
				<g>
					<path fill="#F2CE1C" d="M43.6,28.6c0,1.3,0.9,2.1,2.3,2.8v-5.4C44.5,26.4,43.6,27.5,43.6,28.6z"/>
				</g>
				<g>
					<path fill="#F2CE1C" d="M48,34.6v5.3c1.5-0.3,2.3-1.5,2.3-2.5C50.3,36,49.4,35.3,48,34.6z"/>
				</g>
				<g>
					<path fill="#F2CE1C" d="M46.9,19.2c-7.6,0-13.8,6.2-13.8,13.8c0,7.6,6.2,13.8,13.8,13.8c7.6,0,13.8-6.2,13.8-13.8
						C60.8,25.3,54.6,19.2,46.9,19.2z M47.9,42v2.4c0,0.5-0.5,1-1,1c-0.5,0-1-0.5-1-1V42c-2.1-0.3-3.6-1.3-4.2-2.3
						c-0.3-0.5-0.2-1.1,0.3-1.4c0.5-0.3,1.1-0.2,1.4,0.3c0.3,0.4,1.1,1.1,2.5,1.3v-6.2c-2.1-0.9-4.4-2.1-4.4-5
						c0-2.3,1.9-4.2,4.4-4.6v-2.4c0-0.5,0.5-1,1-1c0.5,0,1,0.5,1,1v2.5c2.1,0.3,3.5,1.3,4.2,2.2c0.3,0.5,0.2,1.1-0.3,1.4
						c-0.5,0.3-1.1,0.2-1.4-0.3c-0.3-0.4-1.1-1.1-2.5-1.3v6.3c2.1,0.9,4.4,2.1,4.4,5C52.3,39.7,50.4,41.6,47.9,42z"/>
				</g>
			</g>
			<g>
				<path fill="#B2B2B2" d="M1.3,0l64.5,0C66.4,0,67,0.6,67,1.3s-0.6,1.3-1.3,1.3H2.5v35.2c0,0.7-0.6,1.3-1.3,1.3S0,38.3,0,37.7
					L0,1.3C0,0.5,0.6,0,1.3,0z"/>
			</g>
			<g>
				<path fill="#B2B2B2" d="M7.9,6.7h64.5c0.7,0,1.3,0.6,1.3,1.3c0,0.7-0.6,1.3-1.3,1.3H9.2v35.2c0,0.7-0.6,1.3-1.3,1.3
					S6.7,45,6.7,44.3V7.9C6.7,7.2,7.3,6.7,7.9,6.7z"/>
			</g>
			<g>
				<path fill="#1E4392" d="M14.6,13.3h64.5c0.7,0,1.3,0.6,1.3,1.3V51c0,0.7-0.6,1.3-1.3,1.3H14.6c-0.7,0-1.3-0.6-1.3-1.3V14.6
					C13.4,13.8,14,13.3,14.6,13.3z M77.8,15.8h-62v33.8h62V15.8z"/>
			</g>
			<g>
				<g>
					<path fill="#B2B2B2" d="M64,32.8c0,5.1-2.2,9.6-5.7,12.7h14.1c0.7,0,1.3-0.6,1.3-1.3v-23c0-0.7-0.6-1.3-1.3-1.3H58.3
						C61.8,23.1,64,27.6,64,32.8z"/>
				</g>
				<g>
					<path fill="#B2B2B2" d="M21.3,45.5h14.1c-3.5-3.2-5.7-7.7-5.7-12.7s2.2-9.6,5.7-12.7H21.3c-0.7,0-1.3,0.6-1.3,1.3v23
						C20,45,20.6,45.5,21.3,45.5z"/>
				</g>
			</g>
		</g>
	</g>
</g>
<g id="equals">
</g>
<g id="edit_x5F_icon_8_">
</g>
</svg>
