<?xml version="1.0" encoding="utf-8"?>
<!-- Generator: Adobe Illustrator 18.1.1, SVG Export Plug-In . SVG Version: 6.00 Build 0)  -->
<!DOCTYPE svg PUBLIC "-//W3C//DTD SVG 1.1//EN" "http://www.w3.org/Graphics/SVG/1.1/DTD/svg11.dtd">
<svg version="1.1" id="Layer_1" xmlns="http://www.w3.org/2000/svg" xmlns:xlink="http://www.w3.org/1999/xlink" x="0px" y="0px"
	 viewBox="0 0 67 63.7" enable-background="new 0 0 67 63.7" xml:space="preserve">
<g>
	<g>
		<rect x="2.5" y="1.4" fill="#FFFFFF" width="62.6" height="59.8"/>
	</g>
	<g>
		<polygon fill="#898989" points="59.6,22.9 59.6,57.8 17.8,57.8 30,55.3 35.7,44.4 45,48.3 		"/>
	</g>
	<g>
		<g>
			<path fill="#F2CE1C" d="M17,15.8c0,0.9,0.6,1.4,1.6,1.9v-3.6C17.6,14.4,17,15.1,17,15.8z"/>
		</g>
		<g>
			<path fill="#F2CE1C" d="M19.9,19.8v3.5c1-0.2,1.6-1,1.6-1.7C21.4,20.8,20.9,20.3,19.9,19.8z"/>
		</g>
		<g>
			<path fill="#F2CE1C" d="M19.2,9.5c-5.1,0-9.2,4.1-9.2,9.2c0,5.1,4.1,9.2,9.2,9.2c5.1,0,9.2-4.1,9.2-9.2
				C28.4,13.6,24.3,9.5,19.2,9.5z M19.8,24.7v1.6c0,0.4-0.3,0.7-0.7,0.7c-0.4,0-0.7-0.3-0.7-0.7v-1.6c-1.4-0.2-2.4-0.9-2.8-1.5
				c-0.2-0.3-0.1-0.7,0.2-0.9c0.3-0.2,0.7-0.1,0.9,0.2c0.2,0.3,0.8,0.7,1.7,0.9v-4.2c-1.4-0.6-2.9-1.4-2.9-3.4
				c0-1.6,1.3-2.8,2.9-3.1v-1.6c0-0.4,0.3-0.7,0.7-0.7c0.4,0,0.7,0.3,0.7,0.7v1.7c1.4,0.2,2.3,0.9,2.8,1.5c0.2,0.3,0.1,0.7-0.2,0.9
				c-0.3,0.2-0.7,0.1-0.9-0.2c-0.2-0.3-0.8-0.7-1.7-0.9v4.2c1.4,0.6,2.9,1.4,2.9,3.3C22.8,23.2,21.5,24.5,19.8,24.7z"/>
		</g>
	</g>
	<g>
		<path fill="#1E4392" d="M0,62.5L0,1.3C0,0.6,0.6,0,1.3,0s1.3,0.6,1.3,1.3v59.9h63.2c0.7,0,1.3,0.6,1.3,1.3c0,0.7-0.6,1.3-1.3,1.3
			H1.3C0.6,63.7,0,63.2,0,62.5z"/>
	</g>
	<g>
		<g>
			<polygon fill="#F2CE1C" points="8.6,56 7.5,52.4 20,48.5 29.6,30.9 38.6,35 49.8,12.3 53.1,14 40.3,39.9 31.2,35.7 22.6,51.6 			
				"/>
		</g>
		<g>
			<g>
				<polygon fill="#F2CE1C" points="55.7,17.1 55,6 45.7,12.1 				"/>
			</g>
		</g>
	</g>
</g>
<g id="equals">
</g>
<g id="edit_x5F_icon_8_">
</g>
</svg>
