<?xml version="1.0" encoding="utf-8"?>
<!-- Generator: Adobe Illustrator 18.1.1, SVG Export Plug-In . SVG Version: 6.00 Build 0)  -->
<!DOCTYPE svg PUBLIC "-//W3C//DTD SVG 1.1//EN" "http://www.w3.org/Graphics/SVG/1.1/DTD/svg11.dtd">
<svg version="1.1" id="Layer_1" xmlns="http://www.w3.org/2000/svg" xmlns:xlink="http://www.w3.org/1999/xlink" x="0px" y="0px"
	 viewBox="0 0 80.4 83.8" enable-background="new 0 0 80.4 83.8" xml:space="preserve">
<g>
	<g>
		<polygon fill="#F2CE1C" points="64.9,19.1 46.7,0.9 28.5,19.1 37.2,19.1 37.2,33.6 56.2,33.6 56.2,19.1 		"/>
		<path fill="#FFFFFF" d="M56.9,34.2H36.6V19.7H27L46.7,0l19.7,19.7h-9.6V34.2z M37.8,33h17.8V18.4h7.8L46.7,1.8L30,18.4h7.8V33z"/>
	</g>
	<g>
		<g>
			<rect x="15" y="32.1" fill="#FFFFFF" width="64" height="36.3"/>
		</g>
		<g>
			<rect x="6.9" y="38.6" fill="#FFFFFF" width="66.4" height="37.7"/>
		</g>
		<g>
			<rect x="2.1" y="45.4" fill="#FFFFFF" width="64.6" height="36.8"/>
		</g>
		<g>
			<g>
				<path fill="#B2B2B2" d="M50.3,55.2c0-1.3-0.9-2.1-2.3-2.8v5.4C49.4,57.5,50.3,56.3,50.3,55.2z"/>
			</g>
			<g>
				<path fill="#B2B2B2" d="M45.9,49.3V44c-1.5,0.3-2.3,1.5-2.3,2.5C43.6,47.9,44.4,48.5,45.9,49.3z"/>
			</g>
			<g>
				<path fill="#B2B2B2" d="M46.9,64.7c7.6,0,13.8-6.2,13.8-13.8c0-7.6-6.2-13.8-13.8-13.8c-7.6,0-13.8,6.2-13.8,13.8
					C33.1,58.5,39.3,64.7,46.9,64.7z M46,41.9v-2.4c0-0.5,0.5-1,1-1c0.5,0,1,0.5,1,1v2.4c2.1,0.3,3.6,1.3,4.2,2.3
					c0.3,0.5,0.2,1.1-0.3,1.4c-0.5,0.3-1.1,0.2-1.4-0.3c-0.3-0.4-1.1-1.1-2.5-1.3v6.2c2.1,0.9,4.4,2.1,4.4,5c0,2.3-1.9,4.2-4.4,4.6
					v2.4c0,0.5-0.5,1-1,1c-0.5,0-1-0.5-1-1v-2.5c-2.1-0.3-3.5-1.3-4.2-2.2c-0.3-0.5-0.2-1.1,0.3-1.4c0.5-0.3,1.1-0.2,1.4,0.3
					c0.3,0.4,1.1,1.1,2.5,1.3v-6.3c-2.1-0.9-4.4-2.1-4.4-5C41.6,44.2,43.4,42.3,46,41.9z"/>
			</g>
		</g>
		<g>
			<path fill="#B2B2B2" d="M0,82.5l0-36.4c0-0.7,0.6-1.3,1.3-1.3s1.3,0.6,1.3,1.3v35.2h63.2c0.7,0,1.3,0.6,1.3,1.3s-0.6,1.3-1.3,1.3
				H1.3C0.6,83.8,0,83.3,0,82.5z"/>
		</g>
		<g>
			<path fill="#B2B2B2" d="M6.7,75.9V39.4c0-0.7,0.6-1.3,1.3-1.3s1.3,0.6,1.3,1.3v35.2h63.2c0.7,0,1.3,0.6,1.3,1.3s-0.6,1.3-1.3,1.3
				H7.9C7.3,77.1,6.7,76.6,6.7,75.9z"/>
		</g>
		<g>
			<path fill="#1E4392" d="M13.4,69.2V32.8c0-0.7,0.6-1.3,1.3-1.3h64.5c0.7,0,1.3,0.6,1.3,1.3v36.4c0,0.7-0.6,1.3-1.3,1.3H14.6
				C14,70.5,13.4,70,13.4,69.2z M77.8,34.1h-62V68h62V34.1z"/>
		</g>
		<g>
			<g>
				<path fill="#B2B2B2" d="M58.3,63.8h14.1c0.7,0,1.3-0.6,1.3-1.3v-23c0-0.7-0.6-1.3-1.3-1.3H58.3C61.8,41.4,64,45.9,64,51
					S61.8,60.7,58.3,63.8z"/>
			</g>
			<g>
				<path fill="#B2B2B2" d="M20,39.5v23c0,0.7,0.6,1.3,1.3,1.3h14.1c-3.5-3.1-5.7-7.7-5.7-12.7s2.2-9.5,5.7-12.7H21.3
					C20.6,38.3,20,38.8,20,39.5z"/>
			</g>
		</g>
	</g>
</g>
<g id="equals">
</g>
<g id="edit_x5F_icon_8_">
</g>
</svg>
