<?xml version="1.0" encoding="utf-8"?>
<!-- Generator: Adobe Illustrator 18.1.1, SVG Export Plug-In . SVG Version: 6.00 Build 0)  -->
<svg version="1.1" id="Layer_1" xmlns="http://www.w3.org/2000/svg" xmlns:xlink="http://www.w3.org/1999/xlink" x="0px" y="0px"
	 width="100px" height="82px" viewBox="0 0 100 82" enable-background="new 0 0 100 82" xml:space="preserve">
<g>
	<g>
		<path fill="#FFFFFF" d="M64.7,43.1c1.9,0,3.7-1.2,4.4-2.9c0.5-1.2,0.5-2.5,0-3.6c-0.5-1.2-1.4-2.1-2.6-2.6l-3.2-1.3V21.7
			c0-2-1.6-3.6-3.6-3.6h-3c0.1-0.2,0.2-0.5,0.2-0.7c0.2-1.2,0-2.5-0.7-3.6c-0.9-1.3-2.4-2.1-4-2.1c-0.9,0-1.8,0.3-2.6,0.8l-10,5.6
			h-4.9c-2,0-3.6,1.6-3.6,3.6v13.4c-1.8-1.7-4.4-2.2-6-2.2H24v30l0,0c0.1,4.9,2.1,9.6,5.6,13.1c3.6,3.6,8.4,5.6,13.6,5.6
			s9.9-2,13.6-5.6c1.9-1.9,3.3-4,4.2-6.3c1.4-0.5,2.5-1.8,2.5-3.4v-3.8c1.8-0.1,3.3-1.3,4-2.9c0.8-1.9,0.2-4.1-1.3-5.4
			c1.1-0.5,2-1.4,2.5-2.5c1-2.4-0.2-5.2-2.6-6.2l-2.6-1.1v-1.3C63.8,43,64.2,43.1,64.7,43.1z M63.3,35.2l2.3,1
			c0.6,0.2,1,0.7,1.3,1.3c0.2,0.6,0.2,1.2,0,1.8c-0.4,0.9-1.2,1.5-2.2,1.5c-0.3,0-0.6-0.1-0.9-0.2l-0.4-0.2L63.3,35.2L63.3,35.2z
			 M50.9,14.5L50.9,14.5c0.5-0.3,0.9-0.4,1.4-0.4c0.8,0,1.5,0.4,2,1.1c0.4,0.5,0.5,1.2,0.4,1.8c-0.1,0.5-0.3,0.9-0.6,1.2h-9.5
			L50.9,14.5z M61,66.2c0,0.7-0.5,1.2-1.2,1.2h-13v2.4h11.3c-0.8,1.6-1.8,3.1-3.2,4.4c-3.2,3.2-7.4,4.9-11.8,4.9s-8.7-1.7-11.8-4.9
			c-3-3-4.8-7.1-4.9-11.4l0,0V35.4c0.6,0.1,1.3,0.3,1.9,0.6c1.9,0.9,2.8,2.5,2.8,4.7v9l0,0.9l0.9,0.2c0.2,0.1,5.3,1.4,5.3,11.4h2.4
			c0-9.6-4.3-12.6-6.3-13.4v-2.4h0.1V21.7c0-0.7,0.5-1.2,1.2-1.2h25c0.7,0,1.2,0.5,1.2,1.2L61,66.2L61,66.2z M65.2,58.5
			c-0.3,0.8-1,1.3-1.8,1.4v-4.8l0.5,0.2C65.1,55.9,65.7,57.3,65.2,58.5z M65.1,47.5c1.2,0.5,1.8,1.9,1.3,3.1
			C66,51.5,65.1,52,64.2,52c-0.3,0-0.6-0.1-0.8-0.2v-5.1L65.1,47.5z"/>
		<path fill="#FFFFFF" d="M52.3,25.7H41.4c-0.6,0-1.1-0.5-1.1-1.1v-0.1c0-0.6,0.5-1.1,1.1-1.1h10.9c0.6,0,1.1,0.5,1.1,1.1v0.1
			C53.4,25.2,52.9,25.7,52.3,25.7z"/>
		<path fill="#FFFFFF" d="M46.8,65.8h-0.2c-1.7,0-3.1-1.4-3.1-3.1v-0.2c0-1.7,1.4-3.1,3.1-3.1h0.2c1.7,0,3.1,1.4,3.1,3.1v0.2
			C49.8,64.4,48.5,65.8,46.8,65.8z"/>
	</g>
	<g>
		<path fill="#FFFFFF" d="M72.6,20.8c-1,0-1.7-0.8-1.7-1.7c0-4.8-3.9-8.7-8.7-8.7c-1,0-1.7-0.8-1.7-1.7c0-1,0.8-1.7,1.7-1.7
			c6.7,0,12.1,5.4,12.1,12.1C74.3,20,73.5,20.8,72.6,20.8z"/>
	</g>
	<g>
		<path fill="#FFFFFF" d="M79.5,20.8c-1,0-1.7-0.8-1.7-1.7c0-8.6-7-15.6-15.6-15.6c-1,0-1.7-0.8-1.7-1.7S61.2,0,62.2,0
			c10.5,0,19.1,8.5,19.1,19.1C81.2,20,80.4,20.8,79.5,20.8z"/>
	</g>
</g>
</svg>
