<?xml version="1.0" encoding="utf-8"?>
<!-- Generator: Adobe Illustrator 18.1.1, SVG Export Plug-In . SVG Version: 6.00 Build 0)  -->
<svg version="1.1" id="Layer_1" xmlns="http://www.w3.org/2000/svg" xmlns:xlink="http://www.w3.org/1999/xlink" x="0px" y="0px"
	 width="100px" height="82px" viewBox="0 0 100 82" enable-background="new 0 0 100 82" xml:space="preserve">
<g>
	<g>
		<path fill="#FFFFFF" d="M86.9,3l-1.3,16.2c-0.1,1.4-1.3,2.5-2.7,2.5c-0.1,0-0.1,0-0.2,0c-1.5-0.1-2.6-1.4-2.5-2.9l0.5-6.3
			L56.5,48.8c-0.7,1.1-2.2,1.5-3.4,1l-4.9-2.2L38,63.8c-0.6,1-1.8,1.5-2.9,1.2l-3.8-0.8L21,76.3h60.7c1.5,0,2.7,1.2,2.7,2.7
			c0,1.5-1.2,2.7-2.7,2.7H15c-1.5,0-2.7-1.2-2.7-2.7V12.4c0-1.5,1.2-2.7,2.7-2.7c1.5,0,2.7,1.2,2.7,2.7v59.2l10.4-12.2
			c0.6-0.8,1.7-1.1,2.6-0.9l3.5,0.7l10.4-16.6c0.7-1.2,2.2-1.6,3.5-1l4.9,2.3L75.9,9.8l-5.2,2.5c-1.4,0.6-3,0.1-3.7-1.3
			c-0.7-1.4-0.1-3,1.3-3.7l14.7-7c0.9-0.4,1.9-0.3,2.7,0.2C86.5,1,87,2,86.9,3z"/>
	</g>
</g>
<polygon fill="#F3B41B" points="77.8,30.3 77.8,71 34.4,71 43.1,67.6 50.5,56.1 57.1,58.1 "/>
</svg>
