<?xml version="1.0" encoding="utf-8"?>
<!-- Generator: Adobe Illustrator 18.1.1, SVG Export Plug-In . SVG Version: 6.00 Build 0)  -->
<svg version="1.1" id="Layer_1" xmlns="http://www.w3.org/2000/svg" xmlns:xlink="http://www.w3.org/1999/xlink" x="0px" y="0px"
	 viewBox="0 0 147.7 120.9" enable-background="new 0 0 147.7 120.9" xml:space="preserve">
<g>
	<path fill="#FFFFFF" d="M40.4,111.4l-5.9,2.4c-1.6,0.6-3.2,0.6-3.8-0.9l-0.6-1.5h-6.6l1.7,4.3c1.9,4.6,6.5,5.9,11,4.1l20.5-8.4
		H40.4z"/>
	<path fill="#FFFFFF" d="M4.6,43.4c-4.3,2-5.8,7.8-3.9,12.3l3.9,9.7V43.4z"/>
	<path fill="#FFFFFF" d="M147,66L122.5,6c-1.9-4.6-7.6-7.6-12.1-5.8l-84,34.2h16.2l69.8-28.4l0.3-0.1c1.6-0.6,3.5,0.9,4.2,2.4l2,5
		L66.9,34.5h16.2l38-15.5l6.3,15.5h0.6v1.6l13,31.8c0.6,1.6-0.3,2.6-1.8,3.2l-11.1,4.5v6.6l13.4-5.5C146.1,74.9,148.9,70.6,147,66z"
		/>
</g>
<g>
	<g>
		<path fill="#FFFFFF" d="M133,39.5c0-4.9-4.7-8.5-9.5-8.5H9.5C4.6,31,1,34.6,1,39.5v64.8c0,4.9,3.6,8.7,8.5,8.7h114
			c4.9,0,9.5-3.7,9.5-8.7V39.5z M10.2,37h112.9h0.4c1.7,0,3.5,0.9,3.5,2.6V46H8v-6.4C8,37.9,8.5,37,10.2,37z M123.5,107H10.2
			c-1.7,0-2.2-1.5-2.2-3.1V52h119v51.9C127,105.5,125.1,107,123.5,107z"/>
	</g>
	<g>
		<g>
			<polygon fill="#F4B41A" points="29.8,88.9 40.6,100.6 40.8,100.6 40.8,32.8 18.9,32.8 18.9,100.6 19.1,100.6 			"/>
		</g>
		<g>
			<circle fill="#F4B41A" cx="29.8" cy="40.5" r="24"/>
		</g>
	</g>
</g>
<g id="equals">
</g>
<g id="edit_x5F_icon_8_">
</g>
<path fill="#FFFFFF" d="M99.6,88.7l-2.4,5.9l-1-5.1c-0.1-0.6-0.6-0.9-1-0.9h-3.8l-0.1,0.3c0.8,0.2,1.7,0.4,2.2,0.7
	c0.3,0.2,0.4,0.3,0.5,0.8l1.8,7h2.4l3.7-8.7H99.6z M102.9,88.7l-1.9,8.7h2.3l1.9-8.7H102.9z M115.9,91l0.7,3.3h-1.9L115.9,91z
	 M115.6,88.7c-0.4,0-0.8,0.3-1,0.6l-3.4,8.1h2.4l0.5-1.3h2.9l0.3,1.3h2.1l-1.8-8.7H115.6z M105.8,91.4c0,1.3,1.1,2,2,2.4
	c0.9,0.4,1.2,0.7,1.2,1.1c0,0.6-0.7,0.8-1.4,0.9c-1.1,0-1.8-0.3-2.3-0.6l-0.4,1.9c0.5,0.2,1.5,0.5,2.5,0.5c2.4,0,3.9-1.2,3.9-3
	c0-2.3-3.2-2.4-3.2-3.5c0-0.3,0.3-0.6,1-0.7c0.3,0,1.2-0.1,2.2,0.4l0.4-1.9c-0.5-0.2-1.2-0.4-2.1-0.4
	C107.4,88.5,105.8,89.7,105.8,91.4"/>
</svg>
