<svg xmlns="http://www.w3.org/2000/svg" xmlns:xlink="http://www.w3.org/1999/xlink" viewBox="0 0 204.4 66"><defs><path id="a" d="M60.3 1.2L43.1 44.6l-7-36.9c-.8-4.1-4-6.5-7.6-6.5H.4L0 3c5.8 1.3 12.3 3.3 16.3 5.4 2.4 1.3 3.1 2.5 3.9 5.6l13.2 51h17.5L77.6 1.2H60.3zm24.4 0L71 65h16.5l13.7-63.8H84.7zm94.7 17.2l5 24h-13.7l8.7-24zM177 1.2c-3.2 0-5.8 1.8-7 4.7L145.1 65h17.3l3.4-9.5H187l2 9.5h15.3L191.1 1.2H177zm-71.3 19.9c-.1 9.2 8.2 14.3 14.5 17.4 6.4 3.1 8.6 5.1 8.6 7.9 0 4.3-5.1 6.2-9.9 6.2-8.3.1-13.1-2.2-17-4l-3 14c3.9 1.8 11 3.3 18.4 3.4 17.4 0 28.7-8.6 28.8-21.8.1-16.8-23.3-17.8-23.1-25.3.1-2.3 2.2-4.7 7-5.3 2.4-.3 8.9-.5 16.3 2.9L149.2 3c-4-1.4-9.1-2.8-15.4-2.8-16.5-.2-28 8.5-28.1 20.9"/></defs><use xlink:href="#a" overflow="visible" fill="#FFF"/></svg>